<?xml version="1.0" encoding="utf-8"?>
<!-- Generator: Adobe Illustrator 27.5.0, SVG Export Plug-In . SVG Version: 6.00 Build 0)  -->
<svg version="1.1" xmlns="http://www.w3.org/2000/svg" xmlns:xlink="http://www.w3.org/1999/xlink" x="0px" y="0px"
	 viewBox="0 0 500 500" style="enable-background:new 0 0 500 500;" xml:space="preserve">
<g id="BACKGROUND">
	<rect style="fill:#FFFFFF;" width="500" height="500"/>
</g>
<g id="OBJECTS">
	<g>
		<g>
			<polygon style="fill:#D7EDF5;" points="80.047,93.108 127.849,460.948 419.665,414.435 430.37,90.201 			"/>
			<g>
				<polygon style="fill:#D7EDF5;" points="161.5,54.505 159.223,0 164.071,0 165.422,54.505 				"/>
				<polygon style="fill:#D7EDF5;" points="322.929,54.505 325.206,0 320.358,0 319.007,54.505 				"/>
				<polygon style="fill:#D7EDF5;" points="134.905,42.064 135.466,59.049 359.349,59.06 358.421,35.031 				"/>
			</g>
		</g>
		<g>
			<polygon style="fill:#FFFFFF;" points="144.307,85.237 154.539,219.86 338.4,221.501 347.178,84.215 			"/>
			<g>
				<g>
					<g>
						<polygon style="fill:#D7EDF5;" points="230.1,111.111 230.217,113.916 318.706,114.342 318.51,110.511 						"/>
						<polygon style="fill:#D7EDF5;" points="230.1,121.562 230.217,124.367 318.706,124.793 318.706,120.961 						"/>
						<polygon style="fill:#D7EDF5;" points="230.1,132.718 230.217,135.523 318.706,135.949 318.706,132.116 						"/>
						<polygon style="fill:#D7EDF5;" points="230.561,152.858 230.776,206.211 283.481,203.817 283.825,155.592 						"/>
						<g>
							<path style="fill:#D7EDF5;" d="M193.225,131.428l3.844-20.356c-1.247-0.234-2.529-0.37-3.844-0.37
								c-11.447,0-20.726,9.28-20.726,20.726s9.279,20.726,20.726,20.726c11.447,0,20.726-9.28,20.726-20.726
								c0-4.224-1.27-8.148-3.44-11.425L193.225,131.428z"/>
							<path style="fill:#D7EDF5;" d="M214.783,113.595c-3.035-4.582-7.84-7.879-13.442-8.931l-3.844,20.356L214.783,113.595z"/>
						</g>
						<path style="fill:#D7EDF5;" d="M301.629,161.339c0,2.443-1.98,4.423-4.423,4.423c-2.443,0-4.423-1.98-4.423-4.423
							c0-2.443,1.98-4.423,4.423-4.423C299.649,156.916,301.629,158.896,301.629,161.339z"/>
						<path style="fill:#D7EDF5;" d="M301.18,200.089c0,2.443-1.98,4.423-4.423,4.423c-2.443,0-4.423-1.98-4.423-4.423
							c0-2.443,1.98-4.423,4.423-4.423C299.2,195.666,301.18,197.646,301.18,200.089z"/>
					</g>
					<circle style="fill:#D7EDF5;" cx="297.206" cy="179.251" r="4.873"/>
					<g>
						<polygon style="fill:#FFFFFF;" points="245.104,194.753 224.063,194.753 224.063,192.753 243.973,192.753 253.026,175.648 
							263.291,184.596 271.797,163.748 288.249,165.802 288.001,167.787 273.07,165.923 265.032,189.019 254.566,179.037 						"/>
					</g>
				</g>
				<g>
					<rect x="174.035" y="170.884" style="fill:#D7EDF5;" width="39.606" height="4.819"/>
					<rect x="174.035" y="184.839" style="fill:#D7EDF5;" width="39.606" height="4.819"/>
					<rect x="174.035" y="198.793" style="fill:#D7EDF5;" width="39.606" height="4.819"/>
				</g>
			</g>
		</g>
	</g>
	<g>
		<polygon style="fill:#333333;" points="283.879,304.271 280.006,393.998 276.388,394.178 273.022,304.809 		"/>
		<polygon style="fill:#333333;" points="217.486,306.712 215.034,393.596 211.42,393.84 206.641,307.446 		"/>
		<g>
			<polygon style="fill:#F9CBC2;" points="218.595,402.772 217.299,395.392 212.064,396.04 212.31,403.574 216.491,404.979 			"/>
			<path style="fill:#4D4D4D;" d="M211.667,407.396c0,0,19.235,2.225,25.313,0.094c0,0-0.22-5.53-6.711-4.762
				c-6.49,0.769-11.852-0.962-11.852-0.962s-1.657,3.636-6.264,0.531C212.154,402.297,211.638,404.508,211.667,407.396z"/>
			<path style="fill:#FFC951;" d="M166.688,326.548c0,0,55.306,6.725,52.027,71.02c0,0-8.004,0.227-8.004,0.227
				c0.303-0.01-0.256-11.074-1.299-16.076c-1.642-7.867-3.842-13.54-8.629-20.075c-2.812-3.838-6.906-4.554-11.391-6.101
				c-6.529-2.252-11.776-1.882-18.149-1.055c-4.494,0.583-9.149,1.226-13.557,0.13c-11.745-2.92-11.745-18.853-11.745-18.853
				L166.688,326.548z"/>
		</g>
		<g>
			<g>
				<g>
					<g>
						<g>
							<g>
								<path style="fill:#333333;" d="M132.621,239.901c-3.644-2.359-6.268-5.973-7.63-9.921c-0.317-0.918-0.577-1.872-1.141-2.679
									c-0.58-0.83-1.44-1.445-2.216-2.12c-3.211-2.794-5.11-6.926-4.833-11.023c0.277-4.096,2.809-8.05,6.652-10.023
									c3.787-1.945,8.595-2.005,11.906-4.603c1.64-1.286,2.768-3.102,4.53-4.238c2.001-1.29,4.555-1.534,6.984-1.541
									c4.121-0.011,8.877,0.945,10.756,4.379c1.108,2.025,0.905,4.523-0.095,6.596c-1,2.073-2.715,3.774-4.574,5.239
									c-2.266,1.787-4.902,3.423-6.027,5.989c-1.642,3.746,0.512,7.885,1.426,11.843c0.931,4.032,1.076,11.169-2.853,14.045
									C142.092,244.346,135.637,241.854,132.621,239.901z"/>
								<path style="fill:#F9CBC2;" d="M143.272,257.305c0,0,0.225-7.296,11.637-14.408c7.786-4.851,7.349-14.843,5.451-19.586
									c0,0,4.918-0.577,4.918-1.368c0-0.791-7.189-13.26-13.835-18.003l-11.019,2.77l-11.392,7.906c0,0,14.24,22.926,8.544,40.318
									C137.576,254.933,138.525,258.095,143.272,257.305z"/>
								<path style="fill:#333333;" d="M155.268,218.531c0,0.53-0.443,0.96-0.99,0.96s-0.703-0.43-0.703-0.96
									c0-0.53,0.404-0.96,0.951-0.96S155.268,218,155.268,218.531z"/>
								<path style="fill:#EDAE9F;" d="M153.136,223.673c0,0.655-1.214,1.186-2.712,1.186c-1.498,0-2.712-0.531-2.712-1.186
									c0-0.655,1.893-1.186,3.391-1.186C152.6,222.487,153.136,223.018,153.136,223.673z"/>
								<path style="fill:#333333;" d="M142.176,216.214c0.155-1.574,0.362-3.993,2.16-4.244c7.588-1.059,10.329-3.341,11.008-4.318
									c0.977-1.406-1.266-3.484-2.209-4.906c-0.762-1.15-2.424-1.636-3.965-1.915c-6.537-1.184-13.587-0.28-19.392,2.488
									c-1.576,0.751-3.093,1.66-4.128,2.902c-1.743,2.092-1.881,4.886-1.081,7.344c1.272,3.91,5.414,11.684,10.308,13.18
									C141.497,228.768,141.821,219.824,142.176,216.214z"/>
							</g>
						</g>
						<path style="fill:#F9CBC2;" d="M137.576,228.055c0,0-8.544-4.743-9.493-1.581c-0.949,3.162,9.493,4.743,9.493,4.743V228.055z"
							/>
					</g>
					<g>
						<path style="fill:#8C4542;" d="M157.293,228.507c-0.775,0.225-1.5,0.489-2.286,0.144c-0.505-0.222-0.726-0.603-1.111-0.947
							c-0.206-0.184-0.471,0.001-0.434,0.253c0.088,0.604,0.914,1.107,1.429,1.295c0.884,0.322,1.872,0.171,2.545-0.5
							C157.538,228.649,157.434,228.466,157.293,228.507L157.293,228.507z"/>
					</g>
				</g>
				<g>
					<path style="fill:#333333;" d="M152.753,215.365c0.829-0.306,1.802-0.92,2.148-1.75c0.298-0.717-0.534-1.25-1.139-1.139
						c-0.47,0.086-0.772,0.425-1.121,0.727c-0.337,0.293-0.588,0.559-0.828,0.94C151.445,214.727,152.065,215.619,152.753,215.365
						L152.753,215.365z"/>
				</g>
			</g>
			<g>
				<g>
					<path style="fill:#3BAAC4;" d="M144.437,255.117c0,0,23.897,66.251,25.36,71.783l-24.433,12.835c0,0-22.414-31.54-7.788-84.802
						L144.437,255.117z"/>
					<g>
						<path style="fill:#333333;" d="M158.708,365.906c0,0-26.914,57.716-27.045,59.463c0.921,1.698,2.166,0.264,2.166,0.264
							l28.906-57.825L158.708,365.906z"/>
						<path style="fill:#333333;" d="M199.241,365.734c0,0,19.721,60.552,19.639,62.302c-0.993,1.652-2.182,0-2.182,0
							l-21.685-60.902L199.241,365.734z"/>
						<path style="fill:#333333;" d="M132.631,327.897c0,0,57.807-5.907,64.938-3.455c7.132,2.452,7.132,34.436,7.132,34.436
							h-11.705c0,0,0.303-25.874-2.099-29.142c-2.401-3.268-58.266,1.423-58.266,1.423V327.897z"/>
						<path style="fill:#E55577;" d="M119.262,273.945h10.661c0,0-13.782,90.05,80.735,78.455c0,0,2.268,15.007,0,18.845
							C210.658,371.245,112.078,412.43,119.262,273.945z"/>
					</g>
					<path style="fill:#5BBADC;" d="M203.386,301.623c-2.288-0.609-22.125-1.427-37.958-18.955
						c-6.933-7.675-11.977-21.669-20.991-27.551c-4.399-2.87-9.34-1.964-10.885,3.081c-0.648,2.116-0.526,4.507-0.066,6.795
						c2.746,13.648,19.187,28.828,31.304,34.274c8.697,3.909,28.204,5.927,37.888,4.765L203.386,301.623z"/>
				</g>
			</g>
		</g>
		<g>
			<g>
				<g>
					<polygon style="fill:#F9CBC2;" points="240.009,371.308 243.824,362.259 249.151,364.791 245.191,376.905 240.253,374.961 
											"/>
					<path style="fill:#4D4D4D;" d="M243.555,379.67c0,0-23.981-11.297-22.364-14.879c0,0-0.585-2.84,8.491,0.015
						c7.506,2.361,10.838,5.292,10.838,5.292s-1.278,3.986,5.361,4.699C245.881,374.797,245.924,378.283,243.555,379.67z"/>
				</g>
				<path style="fill:#FFFFFF;" d="M221.191,364.791c0,0,5.968,6.008,22.936,14.457l-0.77,1.017c0,0-18.818-8.57-22.245-14.225
					C220.802,365.528,221,365.212,221.191,364.791z"/>
			</g>
			<g>
				<g>
					<polygon style="fill:#F9CBC2;" points="257.007,408.211 256.835,398.321 262.288,396.59 264.032,409.788 259.236,411.115 					
						"/>
					<path style="fill:#4D4D4D;" d="M264.597,413.198c0,0-26.218,3.912-26.862,0.035c0,0-2.075-2.083,7.071-4.7
						c7.658-2.191,12.183-1.288,12.183-1.288s0.918,3.7,6.837,0.609C263.826,407.854,264.984,410.009,264.597,413.198z"/>
				</g>
				<path style="fill:#FFFFFF;" d="M237.735,413.233c0,0,8.116,1.709,26.92-0.68l0.107,1.25c0,0-18.901,2.996-25.778,0.844
					C237.988,414.335,237.735,413.727,237.735,413.233z"/>
			</g>
			<path style="fill:#FFFFFF;" d="M312.531,321.044c0,0-59.393-4.022-55.998,80.349l7.204,0.509c0,0,1.768-61.441,46.769-62.488
				l3.066-16.654"/>
			<path style="fill:#FFFFFF;" d="M303.461,316.382c0,0-50.887-7.07-61.659,47.604l7.217,3.299c0,0,11.411-44.425,65.674-22.303
				l23.271-5.535l-1.687-15.781l-15.001-10.453L303.461,316.382z"/>
			<path style="fill:#F9CBC2;" d="M301.576,294.879c0,0-16.975,1.59-17.761,7.205h14.698l5.956-4.765L301.576,294.879z"/>
			<path style="fill:#333333;" d="M357.271,243.086c0,0-38.568,44.684-57.151,51.148l3.522,6.257c0,0,41.985-16.501,55.189-43.319
				L357.271,243.086z"/>
			<path style="fill:#333333;" d="M366.139,244.374c0,0,8.5,76.303-29.862,93.271l-31.809-22.238c0,0,38.389-31.351,54.363-71.694
				L366.139,244.374z"/>
			<g>
				<path style="fill:#333333;" d="M341.996,347.233c0,0,20.971,60.131,20.924,61.882c-1.088,1.597-2.182,0.045-2.182,0.045
					l-22.941-60.44L341.996,347.233z"/>
				<path style="fill:#333333;" d="M295.864,352.545c0,0-18.464,60.947-18.345,62.695c1.027,1.631,2.182-0.045,2.182-0.045
					l20.42-61.338L295.864,352.545z"/>
				<path style="fill:#333333;" d="M361.677,313.338c0,0-57.916-4.709-64.996-2.11c-7.08,2.599-6.418,34.576-6.418,34.576
					l11.703-0.242c0,0-0.838-25.862,1.495-29.179c2.333-3.317,58.283,0.216,58.283,0.216L361.677,313.338z"/>
				<path style="fill:#E55577;" d="M373.925,259.121l-10.659,0.221c0,0,15.643,89.746-79.093,80.109c0,0-1.957,15.051,0.39,18.841
					C284.563,358.292,383.975,397.427,373.925,259.121z"/>
			</g>
			<g>
				<path style="fill:#333333;" d="M366.139,244.374c0,0,29.848,27.044,24.947,53.154c-3.116,16.601-46.708,12.917-46.708,12.917
					l0.815-5.516c0,0,34.403-1.565,34.546-10.126c0.285-17.067-17.326-27.973-17.326-27.973l-3.58-7.71L366.139,244.374z"/>
				<path style="fill:#EBAE41;" d="M326.671,194.355c0,0,5.572,26.916,13.82,23.457l-6.508-24.389L326.671,194.355z"/>
				<path style="fill:#EBAE41;" d="M369.384,192.103c0,0,3.857,24.166-5.535,25.019c-5.914,0.537-2.326-5.272-2.326-5.272
					l4.913-18.426L369.384,192.103z"/>
				<g>
					<path style="fill:#F2BDB6;" d="M335.591,209.835c0,0-8.746-3.339-8.918,0.136c-0.172,3.475,9.603,3.161,9.603,3.161
						L335.591,209.835z"/>
					<path style="fill:#F9CBC2;" d="M332.61,188.108c0,0-7.067,25.993,15.222,42.233c0,0,6.795,3.465,10.601,12.163
						c0,0,3.262,2.718,5.436,0c0,0,0-16.271,1.359-22.134s4.077-19.454,1.903-26.792c-2.174-7.339-5.164-13.591-5.164-13.591
						L332.61,188.108z"/>
					<path style="fill:#F9CBC2;" d="M367.411,208.357c0,0,9.15-1.983,7.394-4.987c-1.755-3.004-9.77,2.601-9.77,2.601
						L367.411,208.357z"/>
				</g>
				<path style="fill:#EBAE41;" d="M330.931,199.636c-1.422-0.112-2.875-0.356-4.366-0.76c-2.48-0.672-4.917-1.712-6.815-3.444
					c-6.969-6.358-7.631-22.019,3.729-23.999c4.551-0.793,9.02,1.351,13.464,2.614c4.225,1.201,8.671,1.619,13.046,1.229
					c4.878-0.436,10.448-1.673,14.171,1.508c1.803,1.54,2.747,3.839,3.523,6.079c1.67,4.825,1.667,10.54,2.349,15.6
					c0.166,1.229,0.017,3.991-1.146,4.42c-1.053,0.389-1.083,1.396-1.083,1.396c-3.575,5.395-2.999-7.304-3.418-8.994
					c-0.338-1.359-1.453-4.061-2.504-4.582c-1.855-0.919-6.98,2.791-8.981,3.526C345.474,196.96,338.645,200.243,330.931,199.636z"
					/>
				<g>
					<path style="fill:#BC6C6C;" d="M346.872,202.351c-0.664,2.473-1.366,4.963-1.657,7.514c-0.159,1.393-0.476,4.05,0.682,5.226
						c1.266,1.285,2.667-1.077,2.948-2.243c0.049-0.202-0.222-0.399-0.374-0.218c-0.418,0.499-0.717,1.294-1.215,1.675
						c-1.475,1.129-1.528-1.971-1.497-3.039c0.087-2.979,0.828-5.919,1.542-8.797C347.369,202.192,346.947,202.075,346.872,202.351
						L346.872,202.351z"/>
				</g>
				<g>
					<path style="fill:#8C4542;" d="M349.379,218.238c0.753,0.686,1.731,0.844,2.71,0.618c0.818-0.189,1.885-0.716,2.008-1.634
						c0.024-0.177-0.201-0.258-0.331-0.19c-0.638,0.336-1.024,0.892-1.762,1.093c-0.783,0.213-1.614,0.072-2.345-0.248
						C349.438,217.781,349.169,218.047,349.379,218.238L349.379,218.238z"/>
				</g>
				<path style="fill:#333333;" d="M358.509,204.039c0.436,0.43,0.429,1.142-0.014,1.592c-0.443,0.449-0.923,0.23-1.359-0.2
					c-0.436-0.43-0.461-1.11-0.018-1.559C357.562,203.421,358.073,203.609,358.509,204.039z"/>
				<path style="fill:#333333;" d="M342.32,207.546c-0.161,0.59-0.785,0.934-1.394,0.768c-0.609-0.166-0.653-0.692-0.492-1.282
					c0.161-0.59,0.741-0.946,1.35-0.78C342.393,206.418,342.481,206.956,342.32,207.546z"/>
				<polygon style="fill:#333333;" points="344.377,203.976 349.525,203.567 349.525,204.889 344.377,205.302 				"/>
				<path style="fill:#333333;" d="M349.948,201.361h-1.051c0,0,0.084,12.045,6.706,10.834c6.621-1.211,6.809-10.834,6.809-10.834
					S350.453,201.425,349.948,201.361z M355.617,210.724c-4.809,0.88-4.87-7.868-4.87-7.868h0.763c0.367,0.046,9.052,0,9.052,0
					S360.426,209.844,355.617,210.724z"/>
				<path style="fill:#333333;" d="M331.17,204.807c0,0,1.844,9.446,8.576,9.497c6.731,0.051,4.736-11.828,4.736-11.828
					l-1.035,0.181C342.96,202.807,331.17,204.807,331.17,204.807z M333.25,205.96c0,0,8.563-1.453,8.916-1.562l0.752-0.132
					c0,0,1.449,8.627-3.439,8.591C334.589,212.82,333.25,205.96,333.25,205.96z"/>
				<polygon style="fill:#333333;" points="361.73,202.006 370.839,202.908 368.856,203.738 361.439,203.738 				"/>
				<path style="fill:#FFFFFF;" d="M358.432,242.505c0,0,2.793,1.345,5.441-1.085l2.265,2.954l-2.03,7.234l-3.27-7.608l-4.459,5.527
					l0.892-6.441L358.432,242.505z"/>
			</g>
			<g>
				<g>
					<polygon style="fill:#4D4D4D;" points="326.384,316.225 318.986,435.403 313.572,435.403 314.113,316.225 					"/>
				</g>
			</g>
			<polygon style="fill:#333333;" points="291.664,297.782 287.106,281.039 284.757,281.773 289.496,298.689 			"/>
			<polyline style="fill:#FFFFFF;" points="269.997,304.219 270.085,299.367 316.317,300.284 317.086,304.927 			"/>
			<path style="fill:#EDAE9F;" d="M362.656,213.501c0,0.669-1.119,1.212-2.5,1.212c-1.38,0-2.499-0.542-2.499-1.212
				c0-0.669,1.744-1.211,3.124-1.211C362.162,212.289,362.656,212.832,362.656,213.501z"/>
			<path style="fill:#EDAE9F;" d="M338.976,217.241c-0.217-0.633,0.666-1.509,1.972-1.956c1.306-0.447,2.54-0.297,2.757,0.337
				c0.217,0.633-1.257,1.711-2.563,2.158C339.836,218.227,339.193,217.874,338.976,217.241z"/>
			<g>
				<path style="fill:#EBAE41;" d="M354.856,198.064c0.734,0.156,1.425,0.235,2.176,0.259c0.703,0.023,1.537,0.211,2.027-0.413
					c0.3-0.383,0.303-0.774,0-1.16c-0.489-0.624-1.325-0.436-2.027-0.413c-0.75,0.024-1.442,0.103-2.176,0.259
					C354.129,196.749,354.129,197.91,354.856,198.064L354.856,198.064z"/>
			</g>
			<g>
				<path style="fill:#EBAE41;" d="M336.742,202.19c0.774,0.014,1.657-0.007,2.386-0.299c0.423-0.169,0.729-0.522,0.656-1.005
					c-0.063-0.417-0.439-0.835-0.9-0.795c-0.88,0.076-1.711,0.439-2.482,0.846C335.796,201.259,336.1,202.178,336.742,202.19
					L336.742,202.19z"/>
			</g>
		</g>
		<g>
			<polygon style="fill:#E55577;" points="243.792,304.93 241.729,279.638 264.548,278.825 263.904,304.213 			"/>
			<path style="fill:#E55577;" d="M262.139,286.657c0,0,8.491-9.544,13.186-4.577c4.695,4.967-12.799,15.448-12.799,15.448
				l-0.146-4.102c0,0,9.734-6.409,9.766-9.59c0.032-3.18-9.094,5.401-9.094,5.401L262.139,286.657z"/>
			<path style="fill:#D13F69;" d="M241.729,279.638l4.041-0.144c0,0-0.004,22.684,10.803,24.918l-12.781,0.517L241.729,279.638z"/>
		</g>
		<polygon style="fill:#333333;" points="158.564,313.014 157.401,300.702 206.424,300.702 229.118,255.698 232.624,256.59 
			209.585,316.174 		"/>
		<g>
			<path style="fill:#FFFFFF;" d="M253.541,269.119c-1.38-1.354-2.168-3.292-2.126-5.225c0.011-0.495,0.064-1.03-0.201-1.449
				c-0.495-0.782-1.645-0.617-2.569-0.671c-2.014-0.117-3.624-1.682-4.869-3.269c-0.892-1.138-1.743-2.574-1.303-3.951
				c0.421-1.319,1.851-2.009,3.176-2.41c2.714-0.822,5.659-1.051,8.387-0.279c2.729,0.772,5.211,2.618,6.415,5.185
				c0.757,1.615,0.817,3.876-0.677,4.851c-0.766,0.5-1.738,0.521-2.653,0.526c-0.98,0.005-1.961,0.01-2.941,0.016
				c-0.182,0.001-0.382,0.009-0.517,0.132c-0.14,0.128-0.161,0.336-0.174,0.525C253.375,264.838,253.156,266.949,253.541,269.119"/>
			<path style="fill:#FFFFFF;" d="M242.132,245.365c0.78-2.47,3.592-3.654,6.151-4.056c2.71-0.425,5.497-0.327,8.181,0.237
				c1.612,0.339,3.214,0.857,4.565,1.798s2.434,2.351,2.712,3.974c0.331,1.93-0.509,3.906-1.758,5.414
				c-2.693,3.25-8.714,5.28-12.552,2.834c-1.566-0.998-2.887-2.56-4.391-3.681C243.063,250.41,241.313,247.958,242.132,245.365z"/>
		</g>
		<g>
			<g>
				<path style="fill:#F2BDB6;" d="M344.212,354.905c0,0-35.233,24.008,13.127,65.18l3.462-1.223l-0.428-2.372
					c0,0-34.514-37.258-5.979-58.185l-2.137-11.423L344.212,354.905z"/>
				<path style="fill:#365156;" d="M360.374,416.489c0,0,7.914,6.747,6.712,8.684c-1.202,1.938-4.552-1.9-4.552-1.9
					s-5.301,11.843-15.434,13.31c-10.134,1.467,3.281-8.312,5.791-11.25c2.511-2.938,2.86-6.629,2.86-6.629
					S358.339,420.836,360.374,416.489z"/>
				<path style="fill:#F9CBC2;" d="M343.107,352.479c0,0-41.095,22.943-3.729,74.3l3.163-0.169l0.629-2.615
					c0,0-24.822-44.308,7.822-57.966l0.599-11.606L343.107,352.479z"/>
				<path style="fill:#F9CBC2;" d="M335.603,242.211c0,0-6.854-19.445-7.368-22.015c-0.514-2.57-3.427-2.399-3.084,0.857
					c0.343,3.256,3.084,9.301,3.084,9.301s-6.474,0.809-4.693,4.578c1.78,3.77,8.977,8.91,8.977,8.91L335.603,242.211z"/>
				<path style="fill:#3BAAC4;" d="M336.489,239.861c3.741,5.352,10.478,19.091,33.553,24.138c10.104,2.21,24.756-0.357,34.337,4.55
					c4.675,2.394,6.341,7.134,2.727,10.979c-1.516,1.613-3.652,2.694-5.866,3.43c-13.212,4.39-36.635,0.507-51.459-12.846
					c-7.085-6.382-16.118-17.991-19.915-26.975L336.489,239.861z"/>
				<path style="fill:#3BAAC4;" d="M395.559,268.692c0,0-24.137,38.945-8.471,37.088c0,0-3.126,28.049-4.589,33.581l26.111,9.374
					c0,0,16.765-34.418,9.93-80.135L395.559,268.692z"/>
				<path style="fill:#333333;" d="M381.749,216.799c-0.869,6.14,5.832,15.634,5.339,21.822
					c-1.327,16.641-1.083,42.464,21.898,33.319c1.81-0.72,3.654-1.729,5.582-1.451c1.88,0.271,3.385,1.739,4.356,3.371
					c0.971,1.632,1.433,3.53,2.406,5.161c6.472,10.843,31.685,0.183,30.752-15.893c-0.685-11.79-9.91-12.251-17.048-19.736
					c-8.146-8.542-6.88-19.096-11.315-29.295c-3.069-7.057-9.342-12.644-16.705-14.878c-5.654-1.716-14.753-2.022-19.785,1.751
					c-3.813,2.859-5.186,7.443-4.94,11.563c0.051,0.856-0.191,1.702-0.303,2.538C381.91,215.647,381.831,216.223,381.749,216.799z"
					/>
				<path style="fill:#F9CBC2;" d="M385.521,206.821c0,0-14.556,24.113-13.854,25.517c0.702,1.404,4.725,1.639,4.725,1.639
					s-1.758,20.385,10.18,21.789l14.748-29.284L385.521,206.821z"/>
				<path style="fill:#333333;" d="M382.272,212.53c0.391,2.814,1.615,3.868,4.035,6.59c9.1,10.238,3.239,23.063-0.034,32.012
					c-1.936,5.293-3.24,11.541-0.218,16.299c2.833,4.459,8.57,6.088,13.844,6.392c3.546-6.38,7.092-12.761,10.637-19.141
					c0.87-1.565,1.757-3.181,1.969-4.96c0.151-1.261-0.048-2.535-0.246-3.79c-1.893-11.983-3.786-23.967-5.679-35.95
					c-6.497-1.803-12.994-3.605-19.491-5.408C383.712,205.679,381.949,210.204,382.272,212.53z"/>
				<path style="fill:#333333;" d="M383.066,224.853c0.321,0.521,0.146,1.211-0.391,1.543c-0.537,0.331-0.951,0.004-1.273-0.516
					c-0.321-0.521-0.185-1.188,0.352-1.519C382.292,224.029,382.745,224.332,383.066,224.853z"/>
				<path style="fill:#8C4542;" d="M381.905,237.269c0.561-0.308,1.058-0.871,1.646-1.038c0.85-0.242,1.741,0.524,2.099,1.667
					c0.489,1.559-0.528,2.882-1.81,3.671c-0.57,0.351-1.208,0.626-1.877,0.643c-2.089,0.051-3.971-2.374-3.014-4.327
					C379.574,236.609,380.939,237.798,381.905,237.269z"/>
				<path style="fill:#4D4D4D;" d="M408.609,348.735c0,0-21.924,33.21-60.574,27.527l-10.61-20.439c0,0,18.53-15.85,45.073-16.462
					C382.499,339.361,402.493,344.701,408.609,348.735z"/>
				<path style="fill:#405A60;" d="M343.171,423.995c0,0,6.112,8.413,4.49,10.015c-1.622,1.602-3.98-2.914-3.98-2.914
					s-7.928,10.271-18.123,9.323c-10.195-0.948,5.137-7.312,8.266-9.579c3.129-2.268,4.333-5.774,4.333-5.774
					S340.175,427.745,343.171,423.995z"/>
				<g>
					<path style="fill:#333333;" d="M394.028,378.195c0,0,19.721,60.552,19.639,62.302c-1.121,1.574-2.183,0-2.183,0L389.8,379.595
						L394.028,378.195z"/>
					<path style="fill:#333333;" d="M353.054,378.195c0,0-19.721,60.552-19.639,62.302c0.993,1.652,2.182,0,2.182,0l21.685-60.902
						L353.054,378.195z"/>
					<path style="fill:#333333;" d="M419.665,340.358c0,0-57.807-5.907-64.938-3.455c-7.132,2.452-3.383,35.625-3.383,35.625h11.705
						c0,0-4.051-27.063-1.65-30.331c2.401-3.268,58.266,1.423,58.266,1.423V340.358z"/>
					<path style="fill:#E55577;" d="M433.033,286.406h-10.661c0,0,13.782,90.05-80.735,78.455c0,0-2.268,15.007,0,18.845
						C341.637,383.706,440.217,424.891,433.033,286.406z"/>
				</g>
				<path style="fill:#F9CBC2;" d="M367.341,332.059c0,0-9.721,0.953-9.087,4.381c0.634,3.428,6.264,3.558,7.412,1.867
					c1.149-1.692,1.675-2.944,1.675-2.944l3.063-1.045L367.341,332.059z"/>
				<path style="fill:#F9CBC2;" d="M358.79,334.917c0,0-3.541,4.586-3.744,5.901c-0.202,1.315,1.113,4.755,1.872,4.654
					c0.759-0.101,0.685-2.548-0.01-4.857l3.4-3.695L358.79,334.917z"/>
				<path style="fill:#F9CBC2;" d="M360.958,334.099c0,0-5.783,0.357-6.906,1.071c-1.123,0.714-2.844,3.97-2.268,4.474
					c0.576,0.504,2.368-1.163,3.647-3.207l5.02,0.124L360.958,334.099z"/>
				<path style="fill:#F9CBC2;" d="M359.178,336.348c0,0-0.829,5.068-0.461,5.989c0.369,0.921,2.488,3.041,3.409,2.58
					c0.921-0.461-0.159-3.037-1.819-3.594l0.922-4.018l-2.607-1.374"/>
				<path style="fill:#5BBADC;" d="M366.844,331.689c1.968-1.316,21.226-6.305,30.548-28.008
					c4.082-9.503,4.335-24.376,10.965-32.855c3.236-4.137,8.205-4.876,11.296-0.601c1.297,1.793,1.954,4.095,2.258,6.409
					c1.811,13.804-8.846,33.48-18.553,42.549c-6.968,6.509-24.777,14.72-34.317,16.749L366.844,331.689z"/>
			</g>
			<path style="fill:#EDAE9F;" d="M387.233,231.132c0,0.669-1.119,1.212-2.499,1.212s-2.5-0.542-2.5-1.212
				c0-0.669,1.744-1.211,3.124-1.211C386.739,229.921,387.233,230.463,387.233,231.132z"/>
			<g>
				<path style="fill:#333333;" d="M381.602,221.092c0.432,0.409,0.934,0.651,1.472,0.897c0.607,0.277,1.235,0.605,1.869,0.226
					c0.35-0.209,0.512-0.627,0.415-1.019c-0.176-0.708-0.85-0.917-1.465-1.15c-0.555-0.21-1.089-0.396-1.686-0.415
					C381.472,219.609,381.069,220.587,381.602,221.092L381.602,221.092z"/>
			</g>
		</g>
		<path style="fill:#4D4D4D;" d="M155.642,306.139c0.042,0,183.301-3.954,183.301-3.954v20.966l-183.301-3.535V306.139z"/>
		<g>
			<path style="fill:#F9CBC2;" d="M147.957,296.986c0,0,6.736-1.518,7.643-1.719c0,0-4.032-12.801,0.605-13.507
				c4.637-0.706,6.552,1.411,6.35,2.318s-5.443-0.101-5.443-0.101l0.504,5.325c0,0,5.745-5.21,8.064-1.689
				c2.318,3.521,1.21,6.041,0,6.041s-1.31-3.459-2.318-4.098c-1.008-0.639-4.637,1.78-4.637,1.78s7.862,4.043,7.459,5.65
				c-0.403,1.607-1.714,3.522-3.024,3.321c-1.31-0.202,0.705-3.528,0.302-4.032c-0.403-0.504-4.032-1.617-4.032-1.617
				s0.605,3.331,0.101,4.036s-11.575,0.706-11.575,0.706V296.986z"/>
			<g>
				<polygon style="fill:#F9CBC2;" points="152.526,417.42 150.954,408.621 145.364,409.545 145.816,418.557 150.328,420.122 				
					"/>
				<path style="fill:#E55577;" d="M145.224,423.151c0,0,20.651,2.12,27.105-0.604c0,0-0.374-6.614-7.304-5.51
					c-6.93,1.104-12.714-0.816-12.714-0.816s-1.684,4.4-6.694,0.813C145.618,417.033,145.12,419.695,145.224,423.151z"/>
				<path style="fill:#FFFFFF;" d="M172.329,422.547c0,0,0.254-6.077-5.794-5.63c0,0-0.728,4.437-1.027,6.063
					c0,0-18.304,0.852-20.445-0.297l0.08,1.589C145.143,424.271,166.164,426.457,172.329,422.547z"/>
			</g>
			<g>
				<polygon style="fill:#F9CBC2;" points="177.469,420.965 176.201,412.081 169.875,412.65 169.875,421.676 174.85,423.524 				"/>
				<path style="fill:#E55577;" d="M168.951,426.225c0,0,23.058,3.424,30.455,1.114c0,0-0.047-6.627-7.888-5.964
					c-7.84,0.663-14.223-1.62-14.223-1.62s-2.137,4.286-7.558,0.388C169.738,420.142,169.029,422.768,168.951,426.225z"/>
				<path style="fill:#FFFFFF;" d="M199.407,427.338c0,0,0.628-6.051-6.186-5.988c0,0-1.067,4.384-1.494,5.988
					c0,0-20.591-0.309-22.929-1.591v1.591C168.798,427.338,192.267,430.852,199.407,427.338z"/>
			</g>
			<path style="fill:#3BAAC4;" d="M128.394,347.023c0,0,32.529,19.324,23.809,66.135h-7.297c0,0,0.458-45.039-28.895-55.507
				L128.394,347.023z"/>
			<path style="fill:#5BBADC;" d="M116.011,328.319c0,0,67.496,8.021,61.02,84.84c0,0-8.277,0-8.278,0
				c0.366,0-1.582-15.554-1.748-16.471c-1.713-9.472-4.635-19.222-10.138-27.233c-3.232-4.705-7.62-8.765-12.956-10.793
				c-7.768-2.953-14.606,0.323-22.307,1.06c-5.43,0.52-10.925,0.523-16.317-0.381c-6.051-1.014-12.405-3.608-17.118-6.86
				c-3.322-8.231-4.383-17.53-7.37-24.931l11.097,8.763L116.011,328.319z"/>
			<path style="fill:#EBAE41;" d="M80.43,250.767c0,0-38.819,39.7,7.739,101.712c0,0,14.887-15.861,27.842-24.161
				c0,0-23.622-23.726-28.627-76.45L80.43,250.767z"/>
			<g>
				<path style="fill:#E55577;" d="M98.704,184.17c-2.811-1.549-6.407-1.577-9.356-0.287c-2.949,1.29-5.237,3.809-6.413,6.711
					c-0.6,1.479-0.938,3.073-1.807,4.423c-1.774,2.755-5.278,3.87-8.427,5.025c-4.439,1.628-8.821,3.816-11.848,7.336
					c-0.945,1.099-1.752,2.331-2.184,3.696c-0.397,1.256-0.465,2.588-0.409,3.899c0.273,6.37,3.566,12.563,8.778,16.506
					c2.127,1.609,4.742,3.121,5.319,5.663c0.133,0.587,0.144,1.197,0.305,1.777c0.173,0.622,0.533,1.152,0.995,1.593l-0.004,0.01
					c0,0,5.096,5.399,9.604-2.518l1.374-4.198l-1.91-1.101c0.005-0.332,0.011-0.662,0.023-0.982
					c0.146-3.974,2.229-7.832,2.714-11.846c0.502-4.161,1.028-8.825,4.397-11.483c1.419-1.119,3.184-1.731,4.82-2.531
					c4.169-2.04,7.7-5.602,8.787-9.975C104.549,191.514,102.763,186.406,98.704,184.17z"/>
				<path style="fill:#F9CBC2;" d="M98.917,203.115c0,0,13.248,16.949,13.248,19.372c0,0.808-4.844,2.435-4.844,2.435
					s5.042,16.961-10.924,20.999c-5.366,1.357-7.884,4.356-8.863,7.74c0,0-2.061,0.337-7.103-2.894c0,0,5.042-9.692,1.681-19.384
					l-1.681-4.846l1.681-20.999l13.445-4.846L98.917,203.115z"/>
				<path style="fill:#F9CBC2;" d="M82.111,226.537c0,0-7.563-4.846-8.403-1.615c-0.84,3.231,8.403,4.846,8.403,4.846V226.537z"/>
				<path style="fill:#E55577;" d="M84.544,220.505c0.1-1.767-0.794-3.482-0.695-5.249c0.14-2.501,2.231-4.52,4.497-5.756
					s4.821-1.955,7.003-3.324c2.182-1.369,5.593-4.617,5.249-7.1c-0.251-1.811-3.22-2.42-4.919-3.238s-3.657-1.007-5.556-0.933
					c-1.894,0.074-3.778,0.394-5.583,0.951c-1.281,0.395-2.533,0.915-3.615,1.683c-1.114,0.791-2.02,1.826-2.798,2.927
					c-3.258,4.609-4.142,10.568-2.781,15.944c0.618,2.441,3.004,7.647,5.084,9.32C82.933,227.743,84.397,223.1,84.544,220.505z"/>
				<path style="fill:#EDAE9F;" d="M97.635,224.561c0,0.669-1.119,1.211-2.5,1.211c-1.38,0-2.499-0.542-2.499-1.211
					c0-0.669,1.744-1.212,3.124-1.212C97.141,223.35,97.635,223.892,97.635,224.561z"/>
				<path style="fill:#333333;" d="M99.846,217.432c0,0.612-0.512,1.108-1.143,1.108c-0.631,0-0.812-0.496-0.812-1.108
					c0-0.612,0.466-1.108,1.097-1.108C99.62,216.324,99.846,216.82,99.846,217.432z"/>
				<path style="fill:#8C4542;" d="M102.755,228.059c-0.561-0.208-1.058-0.59-1.646-0.703c-0.85-0.164-1.741,0.355-2.099,1.128
					c-0.191,0.411-0.201,0.92,0.041,1.304c0.162,0.257,0.419,0.439,0.677,0.601c0.841,0.531,1.78,0.94,2.77,1.027
					c1.331,0.118,4.556-1.085,3.213-2.941C105.086,227.613,103.721,228.417,102.755,228.059z"/>
			</g>
			<path style="fill:#FFC951;" d="M150.251,295.308c-10.054-1.485-34.704-5.145-41.497-13.321
				c-6.657-8.012-11.277-18.643-21.099-23.416c-4.836-2.35-10.284-0.791-12.001,4.655c-0.732,2.321-0.592,4.841-0.063,7.217
				c3.223,14.482,19.144,24.909,32.616,28.503c9.465,2.524,32.961,4.079,42.217,0.873L150.251,295.308z"/>
			<path style="fill:#516B72;" d="M88.169,352.479"/>
			<path style="fill:#FFC951;" d="M81.344,247.139c0.204-0.182,8.752,1.59,9.627,4.05c0.509,1.433-2.739,5.453-2.742,5.43
				c-0.003-0.024-8.359-3.821-9.096-5.162C79.133,251.457,80.18,248.174,81.344,247.139z"/>
			<g>
				<path style="fill:#333333;" d="M77.882,367.285c0,0-19.722,60.552-19.639,62.302c1.12,1.574,2.183,0,2.183,0l21.685-60.902
					L77.882,367.285z"/>
				<path style="fill:#333333;" d="M119.977,366.938c0,0,24.536,58.766,24.595,60.517c-0.857,1.727-2.176,0.176-2.176,0.176
					l-26.522-58.957L119.977,366.938z"/>
				<path style="fill:#333333;" d="M52.245,327.548c0,0,57.807-5.907,64.938-3.455c7.132,2.452,7.132,34.436,7.132,34.436H112.61
					c0,0,0.303-25.874-2.099-29.142c-2.401-3.268-58.266,1.423-58.266,1.423V327.548z"/>
				<path style="fill:#E55577;" d="M38.877,273.597h10.661c0,0-13.782,90.05,80.735,78.455c0,0,2.268,15.007,0,18.845
					C130.273,370.897,31.693,412.081,38.877,273.597z"/>
			</g>
			<g>
				<path style="fill:#E55577;" d="M95.816,215.125c0.599-0.132,1.028-0.329,1.509-0.721c0.474-0.386,0.966-0.71,1.151-1.317
					c0.225-0.742-0.49-1.294-1.168-1.168c-0.581,0.108-1.014,0.646-1.419,1.049c-0.422,0.419-0.634,0.854-0.823,1.407
					C94.907,214.84,95.391,215.218,95.816,215.125L95.816,215.125z"/>
			</g>
		</g>
		<g>
			<polygon style="fill:#4D4D4D;" points="182.613,316.225 190.94,437.014 196.317,436.556 192.795,316.225 			"/>
		</g>
	</g>
	<g>
		<g style="opacity:0.21;">
			<path style="fill:#333333;" d="M61.216,212.498c0.032,0,0.032-0.05,0-0.05S61.184,212.498,61.216,212.498L61.216,212.498z"/>
		</g>
		<g style="opacity:0.21;">
			<path style="fill:#333333;" d="M65.305,209.72c0.89,0,0.891-1.383,0-1.383C64.416,208.337,64.414,209.72,65.305,209.72
				L65.305,209.72z"/>
		</g>
		<g style="opacity:0.21;">
			<path style="fill:#333333;" d="M63.368,215.356c0.664,0,0.665-1.031,0-1.031C62.705,214.325,62.704,215.356,63.368,215.356
				L63.368,215.356z"/>
		</g>
		<g style="opacity:0.21;">
			<path style="fill:#333333;" d="M66.597,221.761c0.596,0,0.597-0.926,0-0.926C66.001,220.835,66,221.761,66.597,221.761
				L66.597,221.761z"/>
		</g>
		<g style="opacity:0.21;">
			<path style="fill:#333333;" d="M68.749,216.129c0.55,0,0.551-0.855,0-0.855C68.199,215.274,68.198,216.129,68.749,216.129
				L68.749,216.129z"/>
		</g>
		<g style="opacity:0.21;">
			<path style="fill:#333333;" d="M78.651,204.093c0.573,0,0.574-0.891,0-0.891C78.077,203.202,78.077,204.093,78.651,204.093
				L78.651,204.093z"/>
		</g>
		<g style="opacity:0.21;">
			<path style="fill:#333333;" d="M73.915,204.559c0.618,0,0.619-0.961,0-0.961C73.297,203.598,73.296,204.559,73.915,204.559
				L73.915,204.559z"/>
		</g>
		<g style="opacity:0.21;">
			<path style="fill:#333333;" d="M88.337,197.456c0.618,0,0.619-0.961,0-0.961C87.718,196.495,87.717,197.456,88.337,197.456
				L88.337,197.456z"/>
		</g>
		<g style="opacity:0.21;">
			<path style="fill:#333333;" d="M88.121,191.697c0.686,0,0.687-1.066,0-1.066C87.435,190.63,87.434,191.697,88.121,191.697
				L88.121,191.697z"/>
		</g>
		<g style="opacity:0.21;">
			<path style="fill:#333333;" d="M92.969,189.984c0.17-0.21,0.263-0.35,0.193-0.627c-0.026-0.104-0.116-0.195-0.221-0.221
				c-0.275-0.069-0.415,0.021-0.627,0.193C91.849,189.707,92.591,190.45,92.969,189.984L92.969,189.984z"/>
		</g>
		<g style="opacity:0.21;">
			<path style="fill:#333333;" d="M126.716,222.424c0.438-0.208,0.437-0.753,0-0.961c-0.372-0.177-0.838,0.032-0.838,0.481
				C125.878,222.392,126.344,222.601,126.716,222.424L126.716,222.424z"/>
		</g>
		<g style="opacity:0.21;">
			<path style="fill:#333333;" d="M122.345,217.648c0.566,0,0.566-0.879,0-0.879C121.779,216.769,121.779,217.648,122.345,217.648
				L122.345,217.648z"/>
		</g>
		<g style="opacity:0.21;">
			<path style="fill:#333333;" d="M125.574,215.268c0.55,0,0.551-0.855,0-0.855C125.023,214.413,125.022,215.268,125.574,215.268
				L125.574,215.268z"/>
		</g>
		<g style="opacity:0.21;">
			<path style="fill:#333333;" d="M137.87,262.824c0.087-0.047,0.153-0.095,0.221-0.166c0.133-0.139,0.134-0.357,0-0.497
				c-0.068-0.071-0.134-0.119-0.221-0.166c-0.318-0.172-0.723,0.041-0.723,0.415C137.147,262.783,137.552,262.996,137.87,262.824
				L137.87,262.824z"/>
		</g>
		<g style="opacity:0.21;">
			<path style="fill:#333333;" d="M137.521,269.477c0.064-0.026,0.129-0.053,0.193-0.079c0.309-0.126,0.31-0.506,0-0.633
				c-0.064-0.026-0.129-0.053-0.193-0.079C136.866,268.418,136.861,269.747,137.521,269.477L137.521,269.477z"/>
		</g>
		<g style="opacity:0.21;">
			<path style="fill:#333333;" d="M142.32,272.032c0.124,0.246,0.176,0.375,0.438,0.471c0.109,0.04,0.229-0.045,0.26-0.147
				c0.081-0.267-0.017-0.402-0.141-0.649C142.69,271.336,142.134,271.662,142.32,272.032L142.32,272.032z"/>
		</g>
		<g style="opacity:0.21;">
			<path style="fill:#333333;" d="M142.147,265.663c0.309,0,0.31-0.48,0-0.48C141.838,265.182,141.838,265.663,142.147,265.663
				L142.147,265.663z"/>
		</g>
		<g style="opacity:0.21;">
			<path style="fill:#333333;" d="M148.605,282.943c0.663,0,0.665-1.031,0-1.031C147.941,281.911,147.94,282.943,148.605,282.943
				L148.605,282.943z"/>
		</g>
		<g style="opacity:0.21;">
			<path style="fill:#333333;" d="M80.782,262.749c0.044,0.14,0.09,0.242,0.199,0.343c0.145,0.135,0.36,0.136,0.506,0
				c0.109-0.102,0.155-0.203,0.199-0.343C81.924,261.996,80.541,261.992,80.782,262.749L80.782,262.749z"/>
		</g>
		<g style="opacity:0.21;">
			<path style="fill:#333333;" d="M79.942,271.255c0.096,0.004,0.191,0.008,0.287,0.011c0.164,0.006,0.316-0.093,0.399-0.229
				c0.013-0.021,0.025-0.041,0.038-0.062c0.062-0.102,0.062-0.242,0-0.343c-0.013-0.021-0.025-0.041-0.038-0.062
				c-0.083-0.136-0.235-0.235-0.399-0.229c-0.096,0.003-0.191,0.007-0.287,0.011C79.362,270.377,79.361,271.231,79.942,271.255
				L79.942,271.255z"/>
		</g>
		<g style="opacity:0.21;">
			<path style="fill:#333333;" d="M84.015,271.573c0.052-0.034,0.104-0.068,0.156-0.101c0.177-0.115,0.177-0.361,0-0.476
				c-0.052-0.034-0.104-0.067-0.156-0.101C83.286,270.423,83.286,272.046,84.015,271.573L84.015,271.573z"/>
		</g>
		<g style="opacity:0.21;">
			<path style="fill:#FFC74F;" d="M86.615,276.4"/>
		</g>
		<g style="opacity:0.21;">
			<path style="fill:#333333;" d="M90.02,284.365c0.258,0.179,0.499,0.261,0.807,0.17c0.206-0.061,0.373-0.301,0.295-0.519
				c-0.129-0.359-0.34-0.491-0.695-0.615C89.83,283.194,89.556,284.044,90.02,284.365L90.02,284.365z"/>
		</g>
		<g style="opacity:0.21;">
			<path style="fill:#333333;" d="M77.991,319.578c0.052-0.034,0.104-0.068,0.156-0.101c0.181-0.117,0.181-0.368,0-0.486
				c-0.052-0.034-0.104-0.068-0.156-0.101C77.251,318.41,77.251,320.057,77.991,319.578L77.991,319.578z"/>
		</g>
		<g style="opacity:0.21;">
			<path style="fill:#333333;" d="M72.923,313.77c-0.029-0.092-0.058-0.163-0.102-0.248c-0.077-0.149-0.318-0.149-0.395,0
				c-0.044,0.085-0.073,0.156-0.102,0.248C72.166,314.269,73.082,314.272,72.923,313.77L72.923,313.77z"/>
		</g>
		<g style="opacity:0.21;">
			<path style="fill:#333333;" d="M74.992,308.913c0.844,0,0.846-1.313,0-1.313C74.147,307.6,74.146,308.913,74.992,308.913
				L74.992,308.913z"/>
		</g>
		<g style="opacity:0.21;">
			<path style="fill:#333333;" d="M70.041,302.43c0.535,0,0.536-0.832,0-0.832C69.506,301.598,69.505,302.43,70.041,302.43
				L70.041,302.43z"/>
		</g>
		<g style="opacity:0.21;">
			<path style="fill:#333333;" d="M71.301,297.082c0.219-0.389-0.204-0.884-0.633-0.633
				C70.01,296.833,70.924,297.753,71.301,297.082L71.301,297.082z"/>
		</g>
		<g style="opacity:0.21;">
			<path style="fill:#333333;" d="M101.251,314.887c0.777,0,0.778-1.207,0-1.207C100.474,313.68,100.473,314.887,101.251,314.887
				L101.251,314.887z"/>
		</g>
		<g style="opacity:0.21;">
			<path style="fill:#333333;" d="M64.761,355.236c0.731,0,0.733-1.137,0-1.137C64.03,354.099,64.029,355.236,64.761,355.236
				L64.761,355.236z"/>
		</g>
		<g style="opacity:0.21;">
			<path style="fill:#333333;" d="M67.92,363.486c0.328,0.174,0.603,0.385,0.972,0.246c0.147-0.056,0.251-0.196,0.205-0.36
				c-0.111-0.388-0.389-0.469-0.739-0.634C67.86,362.502,67.421,363.221,67.92,363.486L67.92,363.486z"/>
		</g>
		<g style="opacity:0.21;">
			<path style="fill:#333333;" d="M72.868,363.277c0.648,0,0.65-1.008,0-1.008C72.219,362.27,72.218,363.277,72.868,363.277
				L72.868,363.277z"/>
		</g>
		<g style="opacity:0.21;">
			<path style="fill:#333333;" d="M77.934,369.695c0.217-0.021,0.353-0.044,0.539-0.16c0.257-0.16,0.257-0.528,0-0.688
				c-0.186-0.116-0.322-0.139-0.539-0.16C77.286,368.625,77.285,369.757,77.934,369.695L77.934,369.695z"/>
		</g>
		<g style="opacity:0.21;">
			<path style="fill:#333333;" d="M71.854,355.077c0.528,0,0.529-0.82,0-0.82C71.327,354.257,71.326,355.077,71.854,355.077
				L71.854,355.077z"/>
		</g>
		<g style="opacity:0.21;">
			<path style="fill:#333333;" d="M95.971,371.064c-0.328-0.073-0.529-0.055-0.776,0.189c-0.164,0.162-0.164,0.443,0,0.605
				c0.245,0.242,0.444,0.263,0.776,0.189C96.457,371.939,96.457,371.172,95.971,371.064L95.971,371.064z"/>
		</g>
		<g style="opacity:0.21;">
			<path style="fill:#333333;" d="M103.28,368.839c0.254,0.24,0.385,0.388,0.745,0.32c0.099-0.019,0.202-0.122,0.221-0.221
				c0.068-0.36-0.079-0.491-0.32-0.745C103.522,367.764,102.853,368.433,103.28,368.839L103.28,368.839z"/>
		</g>
		<g style="opacity:0.21;">
			<path style="fill:#333333;" d="M43.145,295.371c0.626,0,0.627-0.973,0-0.973C42.519,294.398,42.518,295.371,43.145,295.371
				L43.145,295.371z"/>
		</g>
		<g style="opacity:0.21;">
			<path style="fill:#333333;" d="M42.132,287.975c0.671,0,0.672-1.043,0-1.043C41.461,286.932,41.459,287.975,42.132,287.975
				L42.132,287.975z"/>
		</g>
		<g style="opacity:0.21;">
			<path style="fill:#333333;" d="M134.34,350.087c0.626,0,0.627-0.973,0-0.973C133.714,349.115,133.713,350.087,134.34,350.087
				L134.34,350.087z"/>
		</g>
		<g style="opacity:0.21;">
			<path style="fill:#333333;" d="M136.704,353.4c0.543,0,0.544-0.844,0-0.844C136.161,352.557,136.16,353.4,136.704,353.4
				L136.704,353.4z"/>
		</g>
		<g style="opacity:0.21;">
			<path style="fill:#333333;" d="M141.93,350.921c0.325,0.077,0.545,0.124,0.875,0.048c0.684-0.156,0.685-1.228,0-1.385
				c-0.332-0.076-0.555-0.028-0.875,0.048C141.294,349.784,141.294,350.769,141.93,350.921L141.93,350.921z"/>
		</g>
		<g style="opacity:0.21;">
			<path style="fill:#333333;" d="M147.174,355.323c0.844,0,0.846-1.313,0-1.313C146.33,354.011,146.329,355.323,147.174,355.323
				L147.174,355.323z"/>
		</g>
		<g style="opacity:0.21;">
			<path style="fill:#333333;" d="M157.983,338.01c0.732,0,0.733-1.137,0-1.137C157.251,336.873,157.25,338.01,157.983,338.01
				L157.983,338.01z"/>
		</g>
		<g style="opacity:0.21;">
			<path style="fill:#333333;" d="M161.023,343.391c0.701,0,0.702-1.09,0-1.09C160.321,342.301,160.32,343.391,161.023,343.391
				L161.023,343.391z"/>
		</g>
		<g style="opacity:0.21;">
			<path style="fill:#333333;" d="M166.427,343.194c0.882,0,0.884-1.371,0-1.371C165.544,341.823,165.543,343.194,166.427,343.194
				L166.427,343.194z"/>
		</g>
		<g style="opacity:0.21;">
			<path style="fill:#333333;" d="M167.44,337.217c0.581,0,0.581-0.902,0-0.902C166.859,336.315,166.858,337.217,167.44,337.217
				L167.44,337.217z"/>
		</g>
		<g style="opacity:0.21;">
			<path style="fill:#333333;" d="M175.546,346.151c0.056,0.006,0.113,0.011,0.169,0.017c0.798,0.08,0.799-1.321,0-1.241
				c-0.056,0.006-0.113,0.011-0.169,0.017C174.771,345.022,174.77,346.073,175.546,346.151L175.546,346.151z"/>
		</g>
		<g style="opacity:0.21;">
			<path style="fill:#333333;" d="M345.776,279.014c0.875,0,0.876-1.359,0-1.359C344.901,277.654,344.9,279.014,345.776,279.014
				L345.776,279.014z"/>
		</g>
		<g style="opacity:0.21;">
			<path style="fill:#333333;" d="M343.866,285.581c0.017,0.052,0.034,0.103,0.05,0.155c0.163,0.501,0.855,0.501,1.018,0
				c0.017-0.052,0.033-0.103,0.05-0.155C345.287,284.65,343.561,284.644,343.866,285.581L343.866,285.581z"/>
		</g>
		<g style="opacity:0.21;">
			<path style="fill:#333333;" d="M336.91,288.129c0.001,0.056,0.002,0.113,0.003,0.169c0.003,0.19,0.129,0.349,0.308,0.404
				c0.079,0.025,0.143,0.025,0.223,0c0.179-0.056,0.305-0.215,0.308-0.404c0.001-0.056,0.002-0.112,0.003-0.169
				C337.763,287.586,336.901,287.585,336.91,288.129L336.91,288.129z"/>
		</g>
		<g style="opacity:0.21;">
			<path style="fill:#333333;" d="M349.829,285.087c0.867,0,0.868-1.348,0-1.348C348.962,283.74,348.961,285.087,349.829,285.087
				L349.829,285.087z"/>
		</g>
		<g style="opacity:0.21;">
			<path style="fill:#333333;" d="M336.994,298.196c0.784,0,0.786-1.219,0-1.219C336.21,296.977,336.209,298.196,336.994,298.196
				L336.994,298.196z"/>
		</g>
		<g style="opacity:0.21;">
			<path style="fill:#333333;" d="M305.921,295.447c0.724,0,0.725-1.125,0-1.125C305.197,294.322,305.196,295.447,305.921,295.447
				L305.921,295.447z"/>
		</g>
		<g style="opacity:0.21;">
			<path style="fill:#333333;" d="M313.689,293.117c0.769,0,0.77-1.195,0-1.195C312.92,291.922,312.919,293.117,313.689,293.117
				L313.689,293.117z"/>
		</g>
		<g style="opacity:0.21;">
			<path style="fill:#333333;" d="M316.053,289.523c0.49,0,0.491-0.762,0-0.762C315.563,288.761,315.563,289.523,316.053,289.523
				L316.053,289.523z"/>
		</g>
		<g style="opacity:0.21;">
			<path style="fill:#333333;" d="M329.525,283.777c0.078,0.073,0.156,0.145,0.234,0.216c0.495,0.453,1.189-0.241,0.736-0.736
				c-0.071-0.079-0.143-0.157-0.216-0.234C329.811,282.519,329.02,283.309,329.525,283.777L329.525,283.777z"/>
		</g>
		<g style="opacity:0.21;">
			<path style="fill:#333333;" d="M335.159,275.825c0.168,0.038,0.312,0.057,0.484,0.061c0.762,0.018,0.763-1.201,0-1.184
				c-0.172,0.004-0.316,0.023-0.484,0.061C334.634,274.881,334.634,275.707,335.159,275.825L335.159,275.825z"/>
		</g>
		<g style="opacity:0.21;">
			<path style="fill:#333333;" d="M336.657,270.808c0.056,0.005,0.113,0.009,0.169,0.014c0.763,0.061,0.765-1.248,0-1.187
				c-0.056,0.005-0.113,0.009-0.169,0.014C335.911,269.707,335.91,270.748,336.657,270.808L336.657,270.808z"/>
		</g>
		<g style="opacity:0.21;">
			<path style="fill:#333333;" d="M351.18,253.25c0.754,0,0.755-1.172,0-1.172C350.426,252.078,350.425,253.25,351.18,253.25
				L351.18,253.25z"/>
		</g>
		<g style="opacity:0.21;">
			<path style="fill:#333333;" d="M321.458,178.588c0.731,0,0.733-1.137,0-1.137C320.726,177.452,320.725,178.588,321.458,178.588
				L321.458,178.588z"/>
		</g>
		<g style="opacity:0.21;">
			<path style="fill:#333333;" d="M317.404,184.207c0.573,0,0.574-0.891,0-0.891C316.831,183.316,316.831,184.207,317.404,184.207
				L317.404,184.207z"/>
		</g>
		<g style="opacity:0.21;">
			<path style="fill:#333333;" d="M323.523,188.664c0.427,0.26,0.729,0.502,1.22,0.247c0.205-0.107,0.259-0.342,0.224-0.549
				c-0.088-0.519-0.56-0.608-0.987-0.779C323.34,187.327,322.97,188.326,323.523,188.664L323.523,188.664z"/>
		</g>
		<g style="opacity:0.21;">
			<path style="fill:#333333;" d="M323.807,194.247c0.207,0.232,0.355,0.407,0.69,0.378c0.226-0.019,0.373-0.165,0.393-0.393
				c0.028-0.332-0.144-0.48-0.378-0.69C324.033,193.115,323.379,193.767,323.807,194.247L323.807,194.247z"/>
		</g>
		<g style="opacity:0.21;">
			<path style="fill:#333333;" d="M332.604,196.448c0.221-0.019,0.362-0.042,0.551-0.163c0.272-0.174,0.272-0.554,0-0.729
				c-0.188-0.121-0.329-0.144-0.551-0.163C331.925,195.336,331.924,196.506,332.604,196.448L332.604,196.448z"/>
		</g>
		<g style="opacity:0.21;">
			<path style="fill:#333333;" d="M333.774,186.097c0.137,0.074,0.27,0.147,0.412,0.211c0.197,0.09,0.379-0.091,0.289-0.289
				c-0.064-0.142-0.137-0.275-0.211-0.412C333.98,185.086,333.249,185.812,333.774,186.097L333.774,186.097z"/>
		</g>
		<g style="opacity:0.21;">
			<path style="fill:#333333;" d="M330.239,180.486c0.565,0,0.566-0.879,0-0.879C329.674,179.607,329.673,180.486,330.239,180.486
				L330.239,180.486z"/>
		</g>
		<g style="opacity:0.21;">
			<path style="fill:#333333;" d="M342.061,194.125c0.732,0,0.733-1.137,0-1.137C341.329,192.988,341.328,194.125,342.061,194.125
				L342.061,194.125z"/>
		</g>
		<g style="opacity:0.21;">
			<path style="fill:#333333;" d="M366.379,193.018c0.611,0,0.612-0.949,0-0.949C365.769,192.069,365.768,193.018,366.379,193.018
				L366.379,193.018z"/>
		</g>
		<g style="opacity:0.21;">
			<path style="fill:#333333;" d="M352.254,229.773c0.026,0.105,0.053,0.211,0.079,0.316c0.049,0.195,0.346,0.196,0.396,0
				c0.026-0.105,0.053-0.211,0.079-0.316C352.924,229.311,352.138,229.308,352.254,229.773L352.254,229.773z"/>
		</g>
		<g style="opacity:0.21;">
			<path style="fill:#333333;" d="M356.247,233.135c0.513,0,0.514-0.797,0-0.797C355.734,232.338,355.733,233.135,356.247,233.135
				L356.247,233.135z"/>
		</g>
		<g style="opacity:0.21;">
			<path style="fill:#333333;" d="M390.974,212.515c0.427,0.335,0.807,0.573,1.334,0.339c0.2-0.089,0.261-0.35,0.221-0.543
				c-0.101-0.486-0.54-0.661-0.979-0.786C391.019,211.375,390.49,212.136,390.974,212.515L390.974,212.515z"/>
		</g>
		<g style="opacity:0.21;">
			<path style="fill:#333333;" d="M395.089,221.763c0.261-0.031,0.414-0.059,0.599-0.249c0.141-0.144,0.141-0.378,0-0.522
				c-0.189-0.194-0.338-0.218-0.599-0.249C394.434,220.666,394.432,221.84,395.089,221.763L395.089,221.763z"/>
		</g>
		<g style="opacity:0.21;">
			<path style="fill:#333333;" d="M401.168,209.022c0.17,0.009,0.336,0.018,0.507,0.015c0.795-0.015,0.797-1.222,0-1.236
				c-0.17-0.003-0.336,0.006-0.507,0.015C400.392,207.855,400.391,208.981,401.168,209.022L401.168,209.022z"/>
		</g>
		<g style="opacity:0.21;">
			<path style="fill:#333333;" d="M397.453,235.71c0.784,0,0.785-1.219,0-1.219C396.669,234.492,396.668,235.71,397.453,235.71
				L397.453,235.71z"/>
		</g>
		<g style="opacity:0.21;">
			<path style="fill:#333333;" d="M396.44,216.702c0.664,0,0.665-1.031,0-1.031C395.776,215.671,395.775,216.702,396.44,216.702
				L396.44,216.702z"/>
		</g>
		<g style="opacity:0.21;">
			<path style="fill:#333333;" d="M390.393,207.25c0.385,0.178,0.674,0.376,1.102,0.257c0.219-0.061,0.411-0.332,0.319-0.562
				c-0.169-0.425-0.418-0.525-0.812-0.737C390.31,205.835,389.697,206.929,390.393,207.25L390.393,207.25z"/>
		</g>
		<g style="opacity:0.21;">
			<path style="fill:#333333;" d="M397.453,268.682c0.284-0.033,0.455-0.064,0.611-0.321c0.058-0.095,0.058-0.224,0-0.319
				c-0.155-0.256-0.323-0.287-0.611-0.321C396.836,267.649,396.834,268.754,397.453,268.682L397.453,268.682z"/>
		</g>
		<g style="opacity:0.21;">
			<path style="fill:#333333;" d="M403.533,270.376c0.626,0,0.627-0.973,0-0.973C402.907,269.404,402.906,270.376,403.533,270.376
				L403.533,270.376z"/>
		</g>
		<g style="opacity:0.21;">
			<path style="fill:#333333;" d="M401.844,263.121c0.056-0.007,0.113-0.015,0.169-0.023c0.82-0.109,0.822-1.169,0-1.279
				c-0.056-0.008-0.113-0.015-0.169-0.022C400.993,261.684,400.992,263.235,401.844,263.121L401.844,263.121z"/>
		</g>
		<g style="opacity:0.21;">
			<path style="fill:#333333;" d="M408.581,263.153c0.189,0.198,0.314,0.326,0.579,0.4c0.318,0.088,0.622-0.215,0.533-0.533
				c-0.074-0.267-0.203-0.392-0.4-0.579C408.822,261.993,408.133,262.682,408.581,263.153L408.581,263.153z"/>
		</g>
		<g style="opacity:0.21;">
			<path style="fill:#333333;" d="M409.612,256.388c0.168-0.019,0.251-0.028,0.409-0.086c0.255-0.092,0.255-0.428,0-0.52
				c-0.159-0.057-0.241-0.067-0.409-0.086C409.168,255.647,409.167,256.437,409.612,256.388L409.612,256.388z"/>
		</g>
		<g style="opacity:0.21;">
			<path style="fill:#333333;" d="M419.07,265.222c0.513,0,0.514-0.797,0-0.797C418.557,264.425,418.556,265.222,419.07,265.222
				L419.07,265.222z"/>
		</g>
		<g style="opacity:0.21;">
			<path style="fill:#333333;" d="M429.878,276.142c0.656,0,0.657-1.02,0-1.02C429.222,275.122,429.221,276.142,429.878,276.142
				L429.878,276.142z"/>
		</g>
		<g style="opacity:0.21;">
			<path style="fill:#333333;" d="M434.514,272.674c0.089-0.04,0.178-0.081,0.267-0.121c0.226-0.103,0.226-0.494,0-0.597
				c-0.089-0.04-0.178-0.081-0.267-0.121C433.597,271.417,433.597,273.092,434.514,272.674L434.514,272.674z"/>
		</g>
		<g style="opacity:0.21;">
			<path style="fill:#333333;" d="M415.354,286.204c0.566,0,0.566-0.879,0-0.879C414.789,285.325,414.788,286.204,415.354,286.204
				L415.354,286.204z"/>
		</g>
		<g style="opacity:0.21;">
			<path style="fill:#333333;" d="M413.713,292.905c-0.147,0.185-0.263,0.326-0.341,0.547c-0.075,0.212,0.162,0.45,0.375,0.375
				c0.221-0.078,0.363-0.196,0.547-0.341C414.71,293.155,414.044,292.489,413.713,292.905L413.713,292.905z"/>
		</g>
		<g style="opacity:0.21;">
			<path style="fill:#333333;" d="M407.924,294.765c0.716,0,0.718-1.113,0-1.113C407.207,293.652,407.206,294.765,407.924,294.765
				L407.924,294.765z"/>
		</g>
		<g style="opacity:0.21;">
			<path style="fill:#333333;" d="M416.705,279.619c0.784,0,0.785-1.219,0-1.219C415.921,278.4,415.92,279.619,416.705,279.619
				L416.705,279.619z"/>
		</g>
		<g style="opacity:0.21;">
			<path style="fill:#333333;" d="M412.037,320.494c-0.077-0.073-0.155-0.145-0.232-0.218c-0.519-0.487-1.269,0.262-0.781,0.781
				c0.073,0.077,0.145,0.155,0.218,0.232C411.738,321.818,412.566,320.991,412.037,320.494L412.037,320.494z"/>
		</g>
		<g style="opacity:0.21;">
			<path style="fill:#333333;" d="M414.341,314.814c0.437,0,0.438-0.68,0-0.68C413.904,314.134,413.903,314.814,414.341,314.814
				L414.341,314.814z"/>
		</g>
		<g style="opacity:0.21;">
			<path style="fill:#333333;" d="M407.586,320.015c0.611,0,0.612-0.949,0-0.949C406.975,319.066,406.974,320.015,407.586,320.015
				L407.586,320.015z"/>
		</g>
		<g style="opacity:0.21;">
			<path style="fill:#333333;" d="M406.91,331.103c0.535,0,0.536-0.832,0-0.832C406.375,330.271,406.374,331.103,406.91,331.103
				L406.91,331.103z"/>
		</g>
		<g style="opacity:0.21;">
			<path style="fill:#333333;" d="M410.626,328.477c0.633,0,0.634-0.984,0-0.984C409.992,327.492,409.991,328.477,410.626,328.477
				L410.626,328.477z"/>
		</g>
		<g style="opacity:0.21;">
			<path style="fill:#333333;" d="M410.626,334.824c0.27-0.027,0.411-0.054,0.565-0.289c0.049-0.075,0.049-0.192,0-0.266
				c-0.153-0.233-0.292-0.261-0.565-0.289C410.083,333.925,410.082,334.878,410.626,334.824L410.626,334.824z"/>
		</g>
		<g style="opacity:0.21;">
			<path style="fill:#333333;" d="M388.068,353.434c0.164,0.125,0.299,0.211,0.496,0.272c0.29,0.091,0.588-0.208,0.497-0.497
				c-0.062-0.197-0.147-0.332-0.272-0.496C388.274,352.035,387.385,352.916,388.068,353.434L388.068,353.434z"/>
		</g>
		<g style="opacity:0.21;">
			<path style="fill:#333333;" d="M395.31,354.415c0.309,0.058,0.468,0.045,0.707-0.171c0.138-0.125,0.138-0.381,0-0.505
				c-0.237-0.215-0.394-0.23-0.707-0.171C394.891,353.647,394.89,354.336,395.31,354.415L395.31,354.415z"/>
		</g>
		<g style="opacity:0.21;">
			<path style="fill:#333333;" d="M393.4,347.781c0.701,0,0.702-1.09,0-1.09C392.699,346.692,392.698,347.781,393.4,347.781
				L393.4,347.781z"/>
		</g>
		<g style="opacity:0.21;">
			<path style="fill:#333333;" d="M394.413,378.535c0.724,0,0.725-1.125,0-1.125C393.689,377.41,393.688,378.535,394.413,378.535
				L394.413,378.535z"/>
		</g>
		<g style="opacity:0.21;">
			<path style="fill:#333333;" d="M402.52,375.739c0.603,0,0.604-0.938,0-0.938C401.916,374.802,401.915,375.739,402.52,375.739
				L402.52,375.739z"/>
		</g>
		<g style="opacity:0.21;">
			<path style="fill:#333333;" d="M399.425,368.853c-0.004-0.056-0.007-0.113-0.01-0.169c-0.012-0.202-0.104-0.435-0.302-0.527
				c-0.235-0.109-0.38-0.11-0.617,0c-0.198,0.092-0.29,0.325-0.302,0.527c-0.003,0.056-0.007,0.113-0.01,0.169
				C398.134,369.652,399.474,369.654,399.425,368.853L399.425,368.853z"/>
		</g>
		<g style="opacity:0.21;">
			<path style="fill:#333333;" d="M408.41,368.515c0.024,0.27,0.064,0.419,0.246,0.619c0.14,0.154,0.423,0.154,0.563,0
				c0.187-0.205,0.221-0.348,0.246-0.619C409.525,367.837,408.349,367.836,408.41,368.515L408.41,368.515z"/>
		</g>
		<g style="opacity:0.21;">
			<path style="fill:#333333;" d="M413.4,362.17c0.071-0.08,0.141-0.159,0.212-0.239c0.126-0.142,0.215-0.354,0.144-0.546
				c-0.08-0.218-0.173-0.311-0.392-0.392c-0.192-0.071-0.404,0.018-0.546,0.144c-0.08,0.071-0.159,0.141-0.239,0.212
				C412.02,361.847,412.903,362.731,413.4,362.17L413.4,362.17z"/>
		</g>
		<g style="opacity:0.21;">
			<path style="fill:#333333;" d="M406.777,360.597c-0.012-0.053-0.023-0.106-0.035-0.159c-0.109-0.502-0.906-0.502-1.015,0
				c-0.012,0.053-0.023,0.106-0.035,0.159C405.495,361.504,406.976,361.509,406.777,360.597L406.777,360.597z"/>
		</g>
		<g style="opacity:0.21;">
			<path style="fill:#333333;" d="M423.18,348.925c-0.005-0.056-0.01-0.113-0.014-0.169c-0.078-0.923-1.358-0.924-1.436,0
				c-0.005,0.056-0.009,0.113-0.014,0.169C421.635,349.867,423.259,349.869,423.18,348.925L423.18,348.925z"/>
		</g>
		<g style="opacity:0.21;">
			<path style="fill:#333333;" d="M367.055,382.979c0.792,0,0.793-1.23,0-1.23C366.263,381.748,366.262,382.979,367.055,382.979
				L367.055,382.979z"/>
		</g>
		<g style="opacity:0.21;">
			<path style="fill:#333333;" d="M361.651,385.663c0.769,0,0.77-1.195,0-1.195C360.882,384.468,360.88,385.663,361.651,385.663
				L361.651,385.663z"/>
		</g>
		<g style="opacity:0.21;">
			<path style="fill:#333333;" d="M354.896,382.297c0.784,0,0.785-1.219,0-1.219C354.111,381.078,354.11,382.297,354.896,382.297
				L354.896,382.297z"/>
		</g>
		<g style="opacity:0.21;">
			<path style="fill:#333333;" d="M296.183,352.498c-0.082,0.048-0.162,0.099-0.241,0.152c-0.461,0.194-0.709,0.751-0.305,1.156
				c0.404,0.404,0.962,0.156,1.156-0.305c0.053-0.079,0.103-0.159,0.152-0.241C297.234,352.787,296.655,352.208,296.183,352.498
				L296.183,352.498z"/>
		</g>
		<g style="opacity:0.21;">
			<path style="fill:#333333;" d="M303.556,358.211c0.648,0,0.65-1.008,0-1.008C302.908,357.203,302.907,358.211,303.556,358.211
				L303.556,358.211z"/>
		</g>
		<g style="opacity:0.21;">
			<path style="fill:#333333;" d="M303.894,352.924c0.439,0.022,1.138-0.019,1.138-0.621c0-0.601-0.702-0.643-1.138-0.621
				C303.095,351.723,303.094,352.883,303.894,352.924L303.894,352.924z"/>
		</g>
		<g style="opacity:0.21;">
			<path style="fill:#333333;" d="M309.068,356.413c0.141,0.064,0.282,0.127,0.424,0.191c0.269,0.121,0.514-0.124,0.393-0.393
				c-0.064-0.141-0.127-0.282-0.191-0.424C309.374,355.081,308.356,356.092,309.068,356.413L309.068,356.413z"/>
		</g>
		<g style="opacity:0.21;">
			<path style="fill:#333333;" d="M334.56,346.445c-0.373-0.209-0.645-0.435-1.081-0.293c-0.227,0.074-0.398,0.318-0.319,0.562
				c0.144,0.447,0.42,0.525,0.827,0.712C334.639,347.727,335.21,346.809,334.56,346.445L334.56,346.445z"/>
		</g>
		<g style="opacity:0.21;">
			<path style="fill:#333333;" d="M330.239,357.215c0.671,0,0.672-1.043,0-1.043C329.568,356.172,329.567,357.215,330.239,357.215
				L330.239,357.215z"/>
		</g>
		<g style="opacity:0.21;">
			<path style="fill:#333333;" d="M341.723,349.068c0.618,0,0.619-0.961,0-0.961C341.105,348.107,341.104,349.068,341.723,349.068
				L341.723,349.068z"/>
		</g>
		<g style="opacity:0.21;">
			<path style="fill:#333333;" d="M340.71,341.464c0.829,0,0.831-1.289,0-1.289C339.88,340.175,339.879,341.464,340.71,341.464
				L340.71,341.464z"/>
		</g>
		<g style="opacity:0.21;">
			<path style="fill:#333333;" d="M361.313,323.965c0.912,0,0.914-1.418,0-1.418C360.401,322.547,360.399,323.965,361.313,323.965
				L361.313,323.965z"/>
		</g>
		<g style="opacity:0.21;">
			<path style="fill:#333333;" d="M357.308,320.245c0.386,0.547,0.869,0.547,1.255,0c0.326-0.462-0.112-1.093-0.627-1.093
				C357.42,319.152,356.982,319.783,357.308,320.245L357.308,320.245z"/>
		</g>
		<g style="opacity:0.21;">
			<path style="fill:#333333;" d="M284.98,331.011c0.852,0,0.853-1.324,0-1.324C284.128,329.687,284.126,331.011,284.98,331.011
				L284.98,331.011z"/>
		</g>
		<g style="opacity:0.21;">
			<path style="fill:#333333;" d="M277.423,333.792c-0.074,0.16-0.211,0.201-0.295,0.232c-0.205,0.076-0.358,0.324-0.217,0.534
				c0.448,0.665,1.273,0.296,1.497-0.35C278.606,333.638,277.682,333.236,277.423,333.792L277.423,333.792z"/>
		</g>
		<g style="opacity:0.21;">
			<path style="fill:#333333;" d="M273.834,332.606c0.731,0,0.733-1.137,0-1.137C273.102,331.469,273.101,332.606,273.834,332.606
				L273.834,332.606z"/>
		</g>
		<g style="opacity:0.21;">
			<path style="fill:#333333;" d="M90.357,98.898c0.671,0,0.672-1.043,0-1.043C89.686,97.855,89.685,98.898,90.357,98.898
				L90.357,98.898z"/>
		</g>
		<g style="opacity:0.21;">
			<path style="fill:#333333;" d="M95.541,113.343c-0.166-0.018-0.319-0.036-0.486-0.033c-0.796,0.016-0.797,1.221,0,1.237
				c0.167,0.004,0.32-0.014,0.486-0.033C96.293,114.431,96.295,113.427,95.541,113.343L95.541,113.343z"/>
		</g>
		<g style="opacity:0.21;">
			<path style="fill:#333333;" d="M88.899,109.393c0.012-0.305,0.017-0.579-0.158-0.84c-0.164-0.245-0.494-0.245-0.658,0
				c-0.175,0.261-0.17,0.533-0.157,0.84C87.951,110.018,88.875,110.02,88.899,109.393L88.899,109.393z"/>
		</g>
		<g style="opacity:0.21;">
			<path style="fill:#333333;" d="M107.205,101.613c0.829,0,0.831-1.289,0-1.289C106.376,100.324,106.374,101.613,107.205,101.613
				L107.205,101.613z"/>
		</g>
		<g style="opacity:0.21;">
			<path style="fill:#333333;" d="M111.093,155.439c0.882,0,0.884-1.371,0-1.371C110.211,154.068,110.21,155.439,111.093,155.439
				L111.093,155.439z"/>
		</g>
		<g style="opacity:0.21;">
			<path style="fill:#333333;" d="M400.103,94.573c0.943,0,0.944-1.465,0-1.465C399.161,93.108,399.159,94.573,400.103,94.573
				L400.103,94.573z"/>
		</g>
		<g style="opacity:0.21;">
			<path style="fill:#333333;" d="M417.185,100.735c0.304,0.237,0.583,0.511,0.953,0.629c0.293,0.093,0.598-0.212,0.505-0.505
				c-0.118-0.37-0.393-0.649-0.629-0.953C417.547,99.307,416.585,100.268,417.185,100.735L417.185,100.735z"/>
		</g>
		<g style="opacity:0.21;">
			<path style="fill:#333333;" d="M416.607,114.273c0.248,0.24,0.479,0.493,0.791,0.648c0.363,0.18,0.726-0.182,0.545-0.545
				c-0.155-0.312-0.408-0.542-0.648-0.791C416.86,113.134,416.156,113.837,416.607,114.273L416.607,114.273z"/>
		</g>
		<g style="opacity:0.21;">
			<path style="fill:#333333;" d="M376.775,410.524c0.588,0,0.589-0.914,0-0.914C376.187,409.61,376.186,410.524,376.775,410.524
				L376.775,410.524z"/>
		</g>
		<g style="opacity:0.21;">
			<path style="fill:#333333;" d="M385.847,415.183c0.746,0,0.748-1.16,0-1.16C385.1,414.023,385.099,415.183,385.847,415.183
				L385.847,415.183z"/>
		</g>
		<g style="opacity:0.21;">
			<path style="fill:#333333;" d="M147.382,442.522c0.905,0,0.906-1.406,0-1.406C146.477,441.116,146.475,442.522,147.382,442.522
				L147.382,442.522z"/>
		</g>
		<g style="opacity:0.21;">
			<path style="fill:#333333;" d="M157.102,446.853c0.162,0.009,0.324,0.019,0.486,0.028c0.677,0.039,0.678-1.09,0-1.052
				c-0.162,0.009-0.324,0.019-0.486,0.028C156.461,445.894,156.46,446.816,157.102,446.853L157.102,446.853z"/>
		</g>
		<g style="opacity:0.21;">
			<path style="fill:#333333;" d="M158.398,439.684c0.588,0,0.589-0.914,0-0.914C157.809,438.77,157.809,439.684,158.398,439.684
				L158.398,439.684z"/>
		</g>
		<g style="opacity:0.21;">
			<path style="fill:#333333;" d="M207.78,225.892c-0.057,0.331-0.122,0.61-0.045,0.944c0.128,0.553,0.991,0.553,1.119,0
				c0.077-0.332,0.012-0.612-0.045-0.944C208.72,225.383,207.868,225.383,207.78,225.892L207.78,225.892z"/>
		</g>
		<g style="opacity:0.21;">
			<path style="fill:#333333;" d="M218.014,235.609c0.162-0.005,0.324-0.01,0.486-0.015c0.22-0.007,0.409-0.148,0.472-0.359
				c0.027-0.091,0.027-0.169,0-0.26c-0.063-0.212-0.253-0.353-0.472-0.359c-0.162-0.005-0.324-0.01-0.486-0.015
				C217.365,234.582,217.364,235.629,218.014,235.609L218.014,235.609z"/>
		</g>
		<g style="opacity:0.21;">
			<path style="fill:#333333;" d="M222.55,230.006c0.162-0.021,0.324-0.041,0.486-0.062c0.86-0.11,0.862-1.231,0-1.341
				c-0.162-0.021-0.324-0.041-0.486-0.062C221.609,228.421,221.607,230.126,222.55,230.006L222.55,230.006z"/>
		</g>
		<g style="opacity:0.21;">
			<path style="fill:#333333;" d="M146.733,49.096c0.425-0.036,0.768-0.01,1.028-0.393c0.082-0.121,0.082-0.322,0-0.444
				c-0.259-0.383-0.602-0.357-1.028-0.393C145.942,47.798,145.941,49.163,146.733,49.096L146.733,49.096z"/>
		</g>
		<g style="opacity:0.21;">
			<path style="fill:#333333;" d="M155.158,54.157c0.313-0.028,0.528-0.076,0.814-0.209c0.215-0.1,0.215-0.467,0-0.567
				c-0.285-0.133-0.498-0.181-0.814-0.209C154.525,53.116,154.523,54.213,155.158,54.157L155.158,54.157z"/>
		</g>
		<g style="opacity:0.21;">
			<path style="fill:#333333;" d="M165.526,50.234c0.202-0.022,0.391-0.035,0.584-0.101c0.35-0.121,0.35-0.591,0-0.712
				c-0.193-0.067-0.382-0.079-0.584-0.101C164.938,49.256,164.937,50.297,165.526,50.234L165.526,50.234z"/>
		</g>
		<g style="opacity:0.21;">
			<path style="fill:#333333;" d="M324.935,46.404c0.664,0,0.665-1.031,0-1.031C324.271,45.373,324.27,46.404,324.935,46.404
				L324.935,46.404z"/>
		</g>
		<g style="opacity:0.21;">
			<path style="fill:#333333;" d="M336.721,50.928c-0.008,0.053-0.109,0.37-0.005,0.263c-0.45,0.466-0.127,1.28,0.53,1.28
				c0.656,0,0.98-0.815,0.53-1.28c0.104,0.107,0.003-0.21-0.005-0.263C337.691,50.407,336.803,50.407,336.721,50.928L336.721,50.928
				z"/>
		</g>
		<g style="opacity:0.21;">
			<path style="fill:#333333;" d="M345.671,47.806c0.799,0,0.801-1.242,0-1.242C344.871,46.563,344.87,47.806,345.671,47.806
				L345.671,47.806z"/>
		</g>
		<g>
			<path style="fill:#D7EDF5;" d="M411.486,65.97c0.781,0.049,1.714-0.375,1.714-1.289c0-0.914-0.933-1.338-1.714-1.289
				C409.828,63.495,409.825,65.866,411.486,65.97L411.486,65.97z"/>
		</g>
		<g>
			<path style="fill:#D7EDF5;" d="M417.965,70.412c0.37,0.008,0.741,0.021,1.111,0.019c1.562-0.008,1.565-2.421,0-2.428
				c-0.37-0.002-0.741,0.011-1.111,0.019C416.428,68.054,416.425,70.379,417.965,70.412L417.965,70.412z"/>
		</g>
		<g>
			<path style="fill:#D7EDF5;" d="M439.35,56.581c1.252,0,1.254-1.945,0-1.945C438.098,54.636,438.096,56.581,439.35,56.581
				L439.35,56.581z"/>
		</g>
		<g>
			<path style="fill:#D7EDF5;" d="M66.879,133.696c-0.025,0.155-0.051,0.31-0.076,0.465c-0.133,0.812,0.345,1.628,1.24,1.628
				c0.888,0,1.373-0.816,1.24-1.628c-0.025-0.155-0.051-0.31-0.076-0.465C69.018,132.544,67.068,132.543,66.879,133.696
				L66.879,133.696z"/>
		</g>
		<g>
			<path style="fill:#D7EDF5;" d="M63.704,126.044c-0.21-0.231-0.505-0.499-0.845-0.494c-0.344,0.004-0.629,0.256-0.845,0.494
				c-0.686,0.753-0.226,2.041,0.845,2.041C63.927,128.084,64.39,126.797,63.704,126.044L63.704,126.044z"/>
		</g>
		<g>
			<path style="fill:#D7EDF5;" d="M63.812,111.916c0.2,0.28,0.387,0.574,0.635,0.814c1.146,1.108,2.858-0.603,1.75-1.75
				c-0.24-0.248-0.533-0.436-0.814-0.635C64.462,109.69,63.156,110.995,63.812,111.916L63.812,111.916z"/>
		</g>
		<g>
			<path style="fill:#D7EDF5;" d="M60.191,252.605c0.15,0.043,0.3,0.086,0.451,0.129c0.482,0.138,1.101,0.005,1.441-0.381
				c0.025-0.029,0.051-0.057,0.076-0.086c0.509-0.578,0.512-1.342,0-1.923c-0.025-0.029-0.051-0.057-0.076-0.086
				c-0.34-0.386-0.959-0.519-1.441-0.381c-0.15,0.043-0.3,0.086-0.451,0.129C58.91,250.372,58.908,252.239,60.191,252.605
				L60.191,252.605z"/>
		</g>
		<g>
			<path style="fill:#D7EDF5;" d="M55.508,261.356c-0.024,0.155-0.048,0.311-0.072,0.466c-0.125,0.802,0.336,1.608,1.225,1.608
				c0.882,0,1.35-0.806,1.225-1.608c-0.024-0.155-0.048-0.311-0.072-0.466C57.636,260.215,55.686,260.214,55.508,261.356
				L55.508,261.356z"/>
		</g>
		<g>
			<path style="fill:#D7EDF5;" d="M444.145,399.282c0.171,0.018,0.315,0.035,0.486,0.019c0.754-0.071,1.401-0.594,1.401-1.401
				c0-0.817-0.645-1.331-1.401-1.402c-0.171-0.016-0.315,0.001-0.486,0.019c-0.743,0.078-1.383,0.58-1.383,1.383
				C442.762,398.712,443.399,399.204,444.145,399.282L444.145,399.282z"/>
		</g>
		<g>
			<path style="fill:#D7EDF5;" d="M445.551,422.502c0.371,0.015,0.742,0.049,1.111,0.003c1.538-0.192,1.541-2.205,0-2.397
				c-0.369-0.046-0.74-0.012-1.111,0.003C444.014,420.174,444.011,422.438,445.551,422.502L445.551,422.502z"/>
		</g>
		<g>
			<path style="fill:#D7EDF5;" d="M463.668,397.3c1.041,0,1.042-1.617,0-1.617C462.628,395.683,462.626,397.3,463.668,397.3
				L463.668,397.3z"/>
		</g>
		<g>
			<path style="fill:#D7EDF5;" d="M462.887,415.423c1.056,0,1.057-1.641,0-1.641C461.831,413.783,461.83,415.423,462.887,415.423
				L462.887,415.423z"/>
		</g>
		<g>
			<path style="fill:#D7EDF5;" d="M103.317,444.199c1.395,0,1.397-2.168,0-2.168C101.922,442.031,101.92,444.199,103.317,444.199
				L103.317,444.199z"/>
		</g>
		<g>
			<path style="fill:#D7EDF5;" d="M105.09,459.737c-0.031,0.156-0.061,0.304-0.109,0.456c0.224-0.224,0.448-0.448,0.672-0.672
				c-0.476,0.197-0.857,0.53-0.857,1.09c0,0.602,0.512,1.113,1.113,1.113c0.604,0,1.113-0.509,1.113-1.113
				c0-0.562-0.378-0.892-0.857-1.09c0.224,0.224,0.448,0.448,0.672,0.672c-0.048-0.152-0.077-0.3-0.109-0.456
				C106.565,458.927,105.253,458.926,105.09,459.737L105.09,459.737z"/>
		</g>
		<g>
			<path style="fill:#D7EDF5;" d="M85.906,452.75c0.229,0.212,0.455,0.414,0.703,0.604c0.584,0.448,1.477-0.444,1.028-1.028
				c-0.19-0.247-0.392-0.474-0.604-0.703C86.335,450.869,85.151,452.052,85.906,452.75L85.906,452.75z"/>
		</g>
		<g>
			<path style="fill:#D7EDF5;" d="M92.301,431.937c0.626,0,0.627-0.973,0-0.973C91.675,430.965,91.674,431.937,92.301,431.937
				L92.301,431.937z"/>
		</g>
		<g>
			<path style="fill:#D7EDF5;" d="M105.919,420.435c0.041,0.309,0.033,0.633,0.229,0.888c0.232,0.301,0.587,0.301,0.82,0
				c0.196-0.254,0.188-0.578,0.229-0.888C107.304,419.614,105.81,419.613,105.919,420.435L105.919,420.435z"/>
		</g>
		<g>
			<path style="fill:#D7EDF5;" d="M41.757,378.668c1.289,0,1.292-2.004,0-2.004C40.467,376.665,40.465,378.668,41.757,378.668
				L41.757,378.668z"/>
		</g>
		<g>
			<path style="fill:#D7EDF5;" d="M41.585,390.145c0.479-0.339,0.953-0.677,0.901-1.333c-0.039-0.492-0.363-0.819-0.859-0.859
				c-0.656-0.052-0.994,0.422-1.333,0.901C39.758,389.613,40.826,390.682,41.585,390.145L41.585,390.145z"/>
		</g>
		<g>
			<path style="fill:#D7EDF5;" d="M257.371,70.486c0.482,0.072,0.863,0.18,1.246-0.195c0.231-0.226,0.231-0.627,0-0.854
				c-0.383-0.375-0.764-0.267-1.246-0.195C256.755,69.335,256.755,70.394,257.371,70.486L257.371,70.486z"/>
		</g>
		<g>
			<path style="fill:#E3EFE9;" d="M261.491,21.75c-0.021,0.156-0.043,0.312-0.064,0.468c-0.15,1.09,1.455,1.097,1.304,0
				c-0.021-0.156-0.043-0.312-0.064-0.468C262.586,21.168,261.571,21.168,261.491,21.75L261.491,21.75z"/>
		</g>
		<g>
			<path style="fill:#E3EFE9;" d="M267.91,29.066c0.166,0.012,0.32,0.023,0.486,0.013c0.883-0.051,0.885-1.323,0-1.374
				c-0.166-0.01-0.32,0.002-0.486,0.013C267.044,27.779,267.043,29.006,267.91,29.066L267.91,29.066z"/>
		</g>
		<g style="opacity:0.21;">
			<path style="fill:#333333;" d="M361.871,272.038c0.829,0,0.831-1.289,0-1.289C361.041,270.749,361.04,272.038,361.871,272.038
				L361.871,272.038z"/>
		</g>
		<g style="opacity:0.21;">
			<path style="fill:#333333;" d="M368.351,277.788c0.724,0,0.725-1.125,0-1.125C367.627,276.663,367.626,277.788,368.351,277.788
				L368.351,277.788z"/>
		</g>
		<g style="opacity:0.21;">
			<path style="fill:#333333;" d="M368.351,277.97c0.958,0,0.959-1.488,0-1.488C367.393,276.482,367.392,277.97,368.351,277.97
				L368.351,277.97z"/>
		</g>
		<g style="opacity:0.21;">
			<path style="fill:#333333;" d="M374.983,275.572c0.17,0.244,0.344,0.479,0.536,0.707c0.143,0.17,0.449,0.248,0.658,0.174
				c0.261-0.093,0.378-0.209,0.472-0.472c0.074-0.208-0.004-0.514-0.174-0.658c-0.227-0.192-0.462-0.366-0.706-0.536
				C375.304,274.463,374.66,275.107,374.983,275.572L374.983,275.572z"/>
		</g>
	</g>
</g>
<g id="DESIGNED_BY_FREEPIK">
	<g>
		<g>
			<g>
				<path style="fill:#B9E0EA;" d="M180.264,481.72v-0.161c-0.218,0.249-0.433,0.453-0.645,0.608
					c-0.212,0.157-0.442,0.276-0.689,0.357c-0.247,0.082-0.517,0.122-0.81,0.122c-0.389,0-0.748-0.082-1.079-0.246
					c-0.33-0.164-0.617-0.399-0.858-0.704c-0.242-0.305-0.425-0.663-0.55-1.075c-0.125-0.412-0.187-0.858-0.187-1.336
					c0-1.014,0.248-1.805,0.743-2.371c0.495-0.565,1.146-0.849,1.954-0.849c0.467,0,0.861,0.081,1.182,0.24
					c0.321,0.161,0.634,0.408,0.939,0.74v-2.393c0-0.333,0.066-0.584,0.199-0.754c0.132-0.17,0.321-0.255,0.567-0.255
					c0.245,0,0.434,0.078,0.567,0.235c0.133,0.157,0.199,0.387,0.199,0.692v7.152c0,0.309-0.071,0.54-0.214,0.695
					c-0.143,0.154-0.326,0.232-0.552,0.232c-0.222,0-0.405-0.08-0.55-0.24C180.336,482.245,180.264,482.017,180.264,481.72z
					 M177.074,479.338c0,0.44,0.068,0.814,0.205,1.122c0.137,0.309,0.324,0.542,0.561,0.697c0.238,0.157,0.497,0.236,0.778,0.236
					c0.285,0,0.545-0.075,0.781-0.223c0.235-0.148,0.424-0.376,0.564-0.682c0.141-0.307,0.211-0.691,0.211-1.15
					c0-0.432-0.07-0.803-0.211-1.115c-0.14-0.31-0.33-0.548-0.57-0.713c-0.24-0.164-0.502-0.246-0.787-0.246
					c-0.297,0-0.562,0.084-0.796,0.252c-0.234,0.168-0.415,0.409-0.543,0.724C177.138,478.557,177.074,478.922,177.074,479.338z"/>
				<path style="fill:#B9E0EA;" d="M187.414,479.749h-3.171c0.004,0.368,0.078,0.693,0.223,0.974
					c0.144,0.282,0.337,0.493,0.576,0.636c0.24,0.143,0.504,0.213,0.793,0.213c0.194,0,0.371-0.022,0.532-0.067
					c0.161-0.046,0.316-0.117,0.467-0.214c0.15-0.096,0.289-0.201,0.415-0.312c0.127-0.111,0.291-0.262,0.493-0.452
					c0.083-0.071,0.202-0.107,0.357-0.107c0.166,0,0.301,0.046,0.403,0.137c0.103,0.092,0.155,0.219,0.155,0.386
					c0,0.147-0.058,0.317-0.172,0.514c-0.116,0.196-0.289,0.384-0.52,0.564c-0.232,0.18-0.522,0.329-0.874,0.448
					c-0.35,0.119-0.753,0.178-1.209,0.178c-1.041,0-1.851-0.297-2.429-0.891c-0.578-0.594-0.867-1.4-0.867-2.417
					c0-0.479,0.071-0.924,0.214-1.333c0.143-0.41,0.351-0.762,0.624-1.055c0.273-0.293,0.61-0.517,1.01-0.674
					c0.4-0.156,0.843-0.234,1.331-0.234c0.633,0,1.177,0.133,1.63,0.401c0.454,0.267,0.794,0.613,1.019,1.036
					c0.225,0.424,0.339,0.856,0.339,1.295c0,0.409-0.117,0.672-0.35,0.794C188.168,479.688,187.839,479.749,187.414,479.749z
					 M184.243,478.828h2.94c-0.039-0.555-0.19-0.97-0.449-1.245c-0.259-0.275-0.601-0.413-1.024-0.413
					c-0.404,0-0.736,0.139-0.995,0.418C184.456,477.867,184.299,478.281,184.243,478.828z"/>
				<path style="fill:#B9E0EA;" d="M194.803,480.525c0,0.448-0.108,0.831-0.327,1.15c-0.217,0.319-0.539,0.561-0.965,0.725
					c-0.425,0.164-0.943,0.246-1.553,0.246c-0.582,0-1.081-0.089-1.497-0.268c-0.416-0.178-0.723-0.401-0.92-0.668
					c-0.198-0.268-0.297-0.536-0.297-0.806c0-0.178,0.063-0.33,0.19-0.457c0.126-0.126,0.287-0.19,0.481-0.19
					c0.17,0,0.3,0.042,0.391,0.125c0.091,0.083,0.179,0.2,0.261,0.35c0.166,0.29,0.366,0.504,0.598,0.648
					c0.232,0.142,0.547,0.214,0.948,0.214c0.325,0,0.591-0.073,0.799-0.217c0.208-0.145,0.311-0.31,0.311-0.496
					c0-0.285-0.107-0.492-0.324-0.623c-0.216-0.131-0.571-0.256-1.066-0.375c-0.558-0.138-1.013-0.284-1.363-0.437
					c-0.351-0.152-0.631-0.353-0.84-0.602c-0.21-0.25-0.315-0.557-0.315-0.921c0-0.324,0.097-0.632,0.291-0.921
					c0.194-0.288,0.48-0.519,0.859-0.691c0.377-0.173,0.834-0.259,1.368-0.259c0.42,0,0.797,0.043,1.131,0.131
					c0.335,0.086,0.615,0.204,0.838,0.351c0.224,0.146,0.394,0.308,0.511,0.486c0.117,0.178,0.175,0.352,0.175,0.523
					c0,0.186-0.062,0.338-0.187,0.457c-0.125,0.118-0.302,0.178-0.532,0.178c-0.167,0-0.308-0.048-0.424-0.143
					c-0.117-0.095-0.25-0.237-0.401-0.427c-0.123-0.158-0.267-0.285-0.433-0.38c-0.167-0.095-0.392-0.142-0.678-0.142
					c-0.293,0-0.536,0.062-0.73,0.188c-0.194,0.124-0.291,0.279-0.291,0.465c0,0.171,0.071,0.31,0.214,0.419
					c0.143,0.109,0.335,0.2,0.577,0.27c0.242,0.071,0.573,0.158,0.998,0.261c0.502,0.123,0.913,0.27,1.232,0.44
					c0.319,0.17,0.56,0.371,0.725,0.603C194.721,479.965,194.803,480.229,194.803,480.525z"/>
				<path style="fill:#B9E0EA;" d="M196.46,475.299c-0.226,0-0.419-0.07-0.579-0.208c-0.16-0.138-0.241-0.334-0.241-0.588
					c0-0.23,0.082-0.418,0.246-0.567c0.164-0.149,0.356-0.223,0.573-0.223c0.21,0,0.396,0.067,0.558,0.202
					c0.163,0.135,0.244,0.33,0.244,0.588c0,0.25-0.08,0.445-0.238,0.585C196.866,475.228,196.678,475.299,196.46,475.299z
					 M197.262,476.974v4.686c0,0.325-0.077,0.571-0.232,0.737c-0.155,0.166-0.35,0.249-0.588,0.249s-0.431-0.085-0.579-0.255
					c-0.149-0.17-0.223-0.414-0.223-0.731v-4.639c0-0.32,0.074-0.562,0.223-0.724c0.148-0.163,0.341-0.244,0.579-0.244
					s0.433,0.081,0.588,0.244C197.185,476.459,197.262,476.685,197.262,476.974z"/>
				<path style="fill:#B9E0EA;" d="M204.366,477.241v4.71c0,0.539-0.058,1.002-0.173,1.391c-0.114,0.387-0.298,0.708-0.552,0.962
					c-0.253,0.253-0.585,0.442-0.995,0.564c-0.41,0.123-0.92,0.184-1.53,0.184c-0.558,0-1.057-0.078-1.497-0.234
					c-0.439-0.157-0.777-0.359-1.016-0.606c-0.237-0.247-0.357-0.502-0.357-0.763c0-0.198,0.067-0.36,0.202-0.484
					c0.134-0.125,0.297-0.188,0.487-0.188c0.238,0,0.446,0.105,0.624,0.315c0.087,0.107,0.177,0.216,0.27,0.324
					c0.093,0.109,0.197,0.202,0.309,0.28c0.113,0.076,0.249,0.134,0.407,0.172c0.158,0.037,0.341,0.056,0.547,0.056
					c0.42,0,0.746-0.058,0.978-0.175c0.232-0.117,0.394-0.28,0.487-0.49c0.093-0.209,0.147-0.434,0.163-0.674
					s0.027-0.625,0.035-1.156c-0.25,0.349-0.537,0.615-0.865,0.797c-0.326,0.182-0.716,0.273-1.167,0.273
					c-0.543,0-1.016-0.139-1.423-0.416c-0.406-0.277-0.718-0.665-0.935-1.164c-0.218-0.5-0.326-1.075-0.326-1.728
					c0-0.487,0.066-0.927,0.198-1.319c0.133-0.393,0.322-0.723,0.567-0.992c0.245-0.269,0.529-0.472,0.849-0.609
					c0.321-0.136,0.673-0.205,1.057-0.205c0.459,0,0.857,0.089,1.194,0.264c0.336,0.177,0.65,0.453,0.938,0.829v-0.22
					c0-0.281,0.069-0.498,0.208-0.654c0.139-0.154,0.317-0.231,0.535-0.231c0.313,0,0.52,0.103,0.623,0.306
					C204.314,476.563,204.366,476.857,204.366,477.241z M199.667,479.297c0,0.657,0.143,1.154,0.43,1.491
					c0.287,0.337,0.659,0.505,1.114,0.505c0.269,0,0.523-0.073,0.763-0.217c0.24-0.145,0.435-0.363,0.586-0.654
					c0.15-0.291,0.226-0.644,0.226-1.06c0-0.661-0.145-1.176-0.437-1.544c-0.291-0.368-0.674-0.553-1.15-0.553
					c-0.463,0-0.834,0.177-1.113,0.529C199.806,478.146,199.667,478.647,199.667,479.297z"/>
				<path style="fill:#B9E0EA;" d="M206.943,476.95v0.196c0.285-0.376,0.597-0.652,0.935-0.829c0.339-0.176,0.727-0.264,1.167-0.264
					c0.428,0,0.81,0.094,1.147,0.28c0.336,0.186,0.588,0.45,0.754,0.789c0.107,0.199,0.176,0.413,0.208,0.642
					c0.032,0.23,0.048,0.523,0.048,0.879v3.017c0,0.325-0.074,0.571-0.223,0.737c-0.148,0.166-0.341,0.249-0.579,0.249
					c-0.242,0-0.438-0.085-0.588-0.255c-0.151-0.17-0.226-0.414-0.226-0.731v-2.702c0-0.534-0.075-0.944-0.223-1.226
					c-0.149-0.283-0.444-0.425-0.888-0.425c-0.288,0-0.552,0.086-0.79,0.258c-0.238,0.173-0.412,0.41-0.523,0.71
					c-0.079,0.242-0.119,0.693-0.119,1.354v2.031c0,0.329-0.077,0.576-0.228,0.74c-0.152,0.164-0.349,0.246-0.591,0.246
					c-0.234,0-0.426-0.085-0.577-0.255c-0.15-0.17-0.226-0.414-0.226-0.731v-4.686c0-0.309,0.067-0.54,0.202-0.693
					c0.135-0.152,0.319-0.228,0.552-0.228c0.143,0,0.272,0.034,0.387,0.101c0.114,0.068,0.207,0.169,0.276,0.302
					C206.908,476.592,206.943,476.757,206.943,476.95z"/>
				<path style="fill:#B9E0EA;" d="M216.808,479.749h-3.171c0.004,0.368,0.078,0.693,0.223,0.974
					c0.144,0.282,0.336,0.493,0.576,0.636c0.239,0.143,0.504,0.213,0.792,0.213c0.194,0,0.371-0.022,0.532-0.067
					c0.16-0.046,0.315-0.117,0.466-0.214c0.15-0.096,0.288-0.201,0.416-0.312c0.126-0.111,0.29-0.262,0.493-0.452
					c0.083-0.071,0.202-0.107,0.356-0.107c0.166,0,0.301,0.046,0.404,0.137c0.103,0.092,0.154,0.219,0.154,0.386
					c0,0.147-0.057,0.317-0.172,0.514c-0.115,0.196-0.288,0.384-0.52,0.564c-0.232,0.18-0.522,0.329-0.873,0.448
					c-0.35,0.119-0.754,0.178-1.209,0.178c-1.041,0-1.851-0.297-2.43-0.891c-0.577-0.594-0.867-1.4-0.867-2.417
					c0-0.479,0.071-0.924,0.214-1.333c0.143-0.41,0.351-0.762,0.624-1.055c0.273-0.293,0.61-0.517,1.009-0.674
					c0.4-0.156,0.844-0.234,1.331-0.234c0.633,0,1.176,0.133,1.63,0.401c0.454,0.267,0.793,0.613,1.019,1.036
					c0.225,0.424,0.339,0.856,0.339,1.295c0,0.409-0.117,0.672-0.351,0.794C217.561,479.688,217.232,479.749,216.808,479.749z
					 M213.637,478.828h2.94c-0.039-0.555-0.189-0.97-0.448-1.245c-0.26-0.275-0.601-0.413-1.025-0.413
					c-0.404,0-0.736,0.139-0.995,0.418C213.849,477.867,213.692,478.281,213.637,478.828z"/>
				<path style="fill:#B9E0EA;" d="M223.418,481.72v-0.161c-0.218,0.249-0.432,0.453-0.644,0.608
					c-0.212,0.157-0.441,0.276-0.689,0.357c-0.247,0.082-0.518,0.122-0.811,0.122c-0.389,0-0.748-0.082-1.078-0.246
					c-0.331-0.164-0.617-0.399-0.858-0.704c-0.242-0.305-0.425-0.663-0.549-1.075c-0.125-0.412-0.187-0.858-0.187-1.336
					c0-1.014,0.247-1.805,0.742-2.371c0.495-0.565,1.147-0.849,1.954-0.849c0.467,0,0.862,0.081,1.182,0.24
					c0.321,0.161,0.633,0.408,0.938,0.74v-2.393c0-0.333,0.067-0.584,0.199-0.754c0.132-0.17,0.322-0.255,0.567-0.255
					c0.245,0,0.434,0.078,0.567,0.235c0.133,0.157,0.199,0.387,0.199,0.692v7.152c0,0.309-0.071,0.54-0.214,0.695
					c-0.143,0.154-0.326,0.232-0.552,0.232c-0.222,0-0.405-0.08-0.55-0.24C223.491,482.245,223.418,482.017,223.418,481.72z
					 M220.229,479.338c0,0.44,0.068,0.814,0.205,1.122c0.137,0.309,0.324,0.542,0.562,0.697c0.237,0.157,0.497,0.236,0.778,0.236
					c0.285,0,0.546-0.075,0.781-0.223c0.236-0.148,0.424-0.376,0.564-0.682c0.141-0.307,0.211-0.691,0.211-1.15
					c0-0.432-0.07-0.803-0.211-1.115c-0.14-0.31-0.33-0.548-0.57-0.713c-0.24-0.164-0.502-0.246-0.787-0.246
					c-0.297,0-0.562,0.084-0.796,0.252c-0.233,0.168-0.415,0.409-0.544,0.724C220.293,478.557,220.229,478.922,220.229,479.338z"/>
				<path style="fill:#B9E0EA;" d="M230.046,474.568v2.477c0.305-0.316,0.616-0.559,0.933-0.727
					c0.317-0.168,0.709-0.252,1.176-0.252c0.539,0,1.01,0.128,1.417,0.382c0.405,0.257,0.72,0.627,0.944,1.112
					c0.224,0.484,0.336,1.06,0.336,1.726c0,0.491-0.063,0.94-0.187,1.351c-0.125,0.41-0.306,0.765-0.544,1.066
					c-0.238,0.301-0.526,0.534-0.864,0.699c-0.339,0.164-0.712,0.246-1.12,0.246c-0.25,0-0.485-0.029-0.704-0.089
					c-0.22-0.059-0.407-0.137-0.562-0.234c-0.154-0.097-0.286-0.197-0.395-0.3c-0.109-0.102-0.253-0.258-0.431-0.464v0.161
					c0,0.305-0.073,0.536-0.22,0.693c-0.146,0.156-0.332,0.234-0.558,0.234c-0.23,0-0.413-0.078-0.549-0.234
					c-0.137-0.157-0.205-0.388-0.205-0.693v-7.081c0-0.329,0.066-0.577,0.199-0.745c0.133-0.168,0.318-0.252,0.556-0.252
					c0.25,0,0.442,0.08,0.576,0.24C229.979,474.043,230.046,474.271,230.046,474.568z M230.124,479.386
					c0,0.646,0.148,1.141,0.443,1.487c0.295,0.347,0.682,0.521,1.161,0.521c0.408,0,0.759-0.177,1.054-0.532
					c0.295-0.355,0.442-0.862,0.442-1.524c0-0.428-0.061-0.797-0.184-1.105c-0.123-0.309-0.297-0.548-0.522-0.716
					c-0.226-0.168-0.49-0.252-0.79-0.252c-0.309,0-0.584,0.084-0.826,0.252c-0.242,0.168-0.432,0.412-0.57,0.73
					C230.193,478.566,230.124,478.946,230.124,479.386z"/>
				<path style="fill:#B9E0EA;" d="M236.954,482.849l0.148-0.363l-1.996-5.025c-0.122-0.288-0.184-0.499-0.184-0.63
					c0-0.139,0.036-0.267,0.107-0.385c0.071-0.119,0.169-0.214,0.294-0.285c0.125-0.072,0.255-0.107,0.389-0.107
					c0.233,0,0.41,0.074,0.529,0.223c0.119,0.148,0.224,0.361,0.314,0.638l1.372,3.992l1.301-3.713
					c0.103-0.3,0.196-0.536,0.279-0.707c0.083-0.17,0.171-0.285,0.264-0.344c0.093-0.06,0.225-0.09,0.395-0.09
					c0.123,0,0.241,0.032,0.354,0.098c0.113,0.065,0.2,0.153,0.261,0.264c0.061,0.111,0.092,0.227,0.092,0.35
					c-0.016,0.075-0.042,0.182-0.077,0.321c-0.036,0.138-0.079,0.28-0.13,0.421l-2.115,5.536c-0.183,0.487-0.361,0.868-0.535,1.146
					c-0.174,0.277-0.405,0.491-0.692,0.639c-0.287,0.149-0.674,0.223-1.161,0.223c-0.475,0-0.831-0.051-1.068-0.154
					c-0.238-0.104-0.357-0.292-0.357-0.565c0-0.186,0.056-0.33,0.169-0.431c0.112-0.101,0.28-0.152,0.501-0.152
					c0.087,0,0.173,0.012,0.256,0.037c0.103,0.023,0.192,0.036,0.267,0.036c0.186,0,0.333-0.028,0.44-0.084
					c0.107-0.055,0.202-0.151,0.288-0.288C236.745,483.315,236.844,483.114,236.954,482.849z"/>
			</g>
			<g>
				<path style="fill:#B9E0EA;" d="M260.446,476.194h0.387v-0.487c0-0.509,0.062-0.911,0.192-1.212
					c0.128-0.299,0.348-0.517,0.655-0.654c0.307-0.136,0.727-0.204,1.261-0.204c0.95,0,1.421,0.23,1.421,0.697
					c0,0.149-0.049,0.278-0.15,0.385c-0.096,0.106-0.214,0.16-0.349,0.16c-0.062,0-0.174-0.012-0.33-0.037
					c-0.148-0.021-0.283-0.035-0.39-0.035c-0.292,0-0.479,0.088-0.566,0.26c-0.079,0.172-0.122,0.418-0.122,0.741v0.386h0.396
					c0.62,0,0.926,0.186,0.926,0.56c0,0.262-0.079,0.432-0.245,0.503c-0.164,0.071-0.39,0.107-0.681,0.107h-0.396v4.297
					c0,0.319-0.075,0.563-0.231,0.73c-0.151,0.17-0.346,0.254-0.589,0.254c-0.23,0-0.419-0.084-0.574-0.254
					c-0.153-0.167-0.228-0.411-0.228-0.73v-4.297h-0.446c-0.243,0-0.427-0.052-0.559-0.164c-0.131-0.107-0.197-0.25-0.197-0.424
					C259.631,476.386,259.902,476.194,260.446,476.194"/>
				<path style="fill:#B9E0EA;" d="M265.755,480.305v1.356c0,0.327-0.083,0.575-0.234,0.738c-0.155,0.166-0.349,0.247-0.586,0.247
					c-0.239,0-0.43-0.082-0.58-0.25c-0.148-0.165-0.225-0.41-0.225-0.734v-4.517c0-0.729,0.263-1.094,0.789-1.094
					c0.271,0,0.465,0.084,0.584,0.255c0.118,0.171,0.185,0.421,0.198,0.755c0.192-0.334,0.39-0.585,0.593-0.755
					c0.208-0.171,0.477-0.255,0.819-0.255c0.343,0,0.671,0.084,0.991,0.255c0.322,0.171,0.482,0.398,0.482,0.678
					c0,0.197-0.069,0.363-0.204,0.489c-0.138,0.131-0.284,0.195-0.442,0.195c-0.062,0-0.207-0.039-0.433-0.112
					c-0.228-0.071-0.431-0.108-0.602-0.108c-0.238,0-0.433,0.064-0.583,0.186c-0.151,0.128-0.269,0.311-0.353,0.555
					c-0.081,0.247-0.137,0.541-0.17,0.878C265.769,479.405,265.755,479.818,265.755,480.305"/>
				<path style="fill:#B9E0EA;" d="M273.21,479.747h-3.173c0.005,0.368,0.078,0.694,0.222,0.975
					c0.147,0.279,0.338,0.492,0.578,0.636c0.241,0.142,0.503,0.213,0.793,0.213c0.194,0,0.371-0.021,0.531-0.07
					c0.159-0.043,0.316-0.116,0.466-0.213c0.151-0.095,0.288-0.199,0.415-0.313c0.126-0.109,0.292-0.26,0.494-0.449
					c0.084-0.071,0.203-0.109,0.355-0.109c0.168,0,0.301,0.046,0.406,0.139c0.104,0.092,0.152,0.219,0.152,0.386
					c0,0.147-0.056,0.318-0.167,0.512c-0.117,0.199-0.289,0.385-0.523,0.567c-0.234,0.178-0.525,0.33-0.874,0.446
					c-0.35,0.119-0.754,0.179-1.208,0.179c-1.045,0-1.854-0.296-2.431-0.889c-0.578-0.595-0.87-1.402-0.87-2.419
					c0-0.479,0.073-0.925,0.217-1.335c0.14-0.412,0.349-0.76,0.625-1.055c0.272-0.294,0.607-0.518,1.008-0.674
					c0.399-0.156,0.842-0.234,1.331-0.234c0.632,0,1.176,0.134,1.63,0.404c0.453,0.265,0.796,0.611,1.019,1.035
					c0.226,0.426,0.339,0.856,0.339,1.297c0,0.406-0.118,0.669-0.351,0.792C273.962,479.686,273.634,479.747,273.21,479.747
					 M270.037,478.824h2.94c-0.039-0.553-0.186-0.969-0.446-1.242c-0.261-0.277-0.6-0.413-1.026-0.413
					c-0.404,0-0.736,0.137-0.996,0.418C270.25,477.867,270.091,478.279,270.037,478.824"/>
				<path style="fill:#B9E0EA;" d="M279.956,479.747h-3.173c0.004,0.368,0.078,0.694,0.222,0.975
					c0.145,0.279,0.337,0.492,0.576,0.636c0.239,0.142,0.504,0.213,0.795,0.213c0.192,0,0.371-0.021,0.528-0.07
					c0.162-0.043,0.316-0.116,0.469-0.213c0.151-0.095,0.288-0.199,0.415-0.313c0.125-0.109,0.29-0.26,0.493-0.449
					c0.084-0.071,0.204-0.109,0.355-0.109c0.168,0,0.302,0.046,0.407,0.139c0.103,0.092,0.15,0.219,0.15,0.386
					c0,0.147-0.054,0.318-0.171,0.512c-0.111,0.199-0.285,0.385-0.519,0.567c-0.231,0.178-0.525,0.33-0.873,0.446
					c-0.349,0.119-0.755,0.179-1.21,0.179c-1.043,0-1.85-0.296-2.431-0.889c-0.578-0.595-0.868-1.402-0.868-2.419
					c0-0.479,0.073-0.925,0.217-1.335c0.142-0.412,0.349-0.76,0.623-1.055c0.272-0.294,0.608-0.518,1.009-0.674
					c0.399-0.156,0.845-0.234,1.331-0.234c0.631,0,1.174,0.134,1.634,0.404c0.45,0.265,0.792,0.611,1.014,1.035
					c0.225,0.426,0.341,0.856,0.341,1.297c0,0.406-0.12,0.669-0.351,0.792C280.707,479.686,280.379,479.747,279.956,479.747
					 M276.784,478.824h2.94c-0.04-0.553-0.19-0.969-0.447-1.242c-0.263-0.277-0.602-0.413-1.027-0.413
					c-0.404,0-0.735,0.137-0.996,0.418C276.995,477.867,276.836,478.279,276.784,478.824"/>
				<path style="fill:#B9E0EA;" d="M283.508,476.962v0.194c0.304-0.376,0.622-0.652,0.953-0.828
					c0.324-0.178,0.699-0.267,1.115-0.267c0.497,0,0.96,0.13,1.38,0.386c0.419,0.259,0.749,0.635,0.994,1.13
					c0.244,0.497,0.367,1.082,0.367,1.76c0,0.498-0.07,0.958-0.21,1.377c-0.14,0.418-0.336,0.767-0.581,1.051
					c-0.246,0.282-0.535,0.501-0.869,0.654c-0.339,0.151-0.695,0.227-1.08,0.227c-0.462,0-0.853-0.093-1.167-0.28
					c-0.315-0.183-0.614-0.459-0.902-0.817v2.434c0,0.71-0.26,1.069-0.778,1.069c-0.307,0-0.506-0.092-0.608-0.275
					c-0.095-0.187-0.146-0.453-0.146-0.807v-7c0-0.31,0.067-0.537,0.2-0.693c0.134-0.15,0.32-0.228,0.553-0.228
					c0.231,0,0.417,0.078,0.56,0.234C283.438,476.443,283.508,476.666,283.508,476.962 M286.688,479.319
					c0-0.428-0.067-0.796-0.197-1.102c-0.131-0.308-0.312-0.542-0.542-0.705c-0.23-0.164-0.489-0.248-0.771-0.248
					c-0.447,0-0.824,0.178-1.131,0.528c-0.308,0.354-0.462,0.873-0.462,1.559c0,0.642,0.153,1.146,0.46,1.505
					c0.305,0.358,0.679,0.537,1.134,0.537c0.268,0,0.519-0.079,0.749-0.233c0.232-0.158,0.416-0.392,0.553-0.705
					C286.618,480.14,286.688,479.761,286.688,479.319"/>
				<path style="fill:#B9E0EA;" d="M289.95,475.295c-0.227,0-0.418-0.072-0.577-0.21c-0.162-0.139-0.242-0.333-0.242-0.586
					c0-0.23,0.082-0.419,0.248-0.569c0.164-0.147,0.354-0.222,0.572-0.222c0.212,0,0.397,0.067,0.559,0.2
					c0.162,0.137,0.244,0.334,0.244,0.592c0,0.25-0.079,0.445-0.236,0.585C290.358,475.224,290.17,475.295,289.95,475.295
					 M290.753,476.97v4.692c0,0.323-0.078,0.568-0.231,0.733c-0.156,0.168-0.351,0.25-0.589,0.25c-0.238,0-0.428-0.084-0.58-0.254
					c-0.146-0.173-0.222-0.416-0.222-0.729v-4.645c0-0.319,0.076-0.56,0.222-0.722c0.152-0.166,0.342-0.245,0.58-0.245
					c0.238,0,0.432,0.079,0.589,0.245C290.676,476.457,290.753,476.684,290.753,476.97"/>
				<path style="fill:#B9E0EA;" d="M295.981,481.905l-1.428-2.355l-0.881,0.831v1.292c0,0.312-0.083,0.552-0.248,0.719
					c-0.161,0.17-0.354,0.254-0.567,0.254c-0.249,0-0.447-0.082-0.588-0.25c-0.142-0.165-0.215-0.41-0.215-0.734v-6.919
					c0-0.359,0.071-0.632,0.207-0.822c0.139-0.19,0.341-0.283,0.596-0.283c0.25,0,0.446,0.086,0.594,0.257
					c0.147,0.169,0.221,0.421,0.221,0.752v3.936l1.824-1.915c0.227-0.235,0.396-0.401,0.517-0.487
					c0.118-0.087,0.262-0.13,0.431-0.13c0.204,0,0.371,0.065,0.51,0.193c0.132,0.129,0.2,0.291,0.2,0.484
					c0,0.237-0.221,0.556-0.66,0.951l-0.861,0.79l1.663,2.616c0.121,0.196,0.212,0.34,0.265,0.442
					c0.053,0.099,0.081,0.2,0.081,0.289c0,0.258-0.072,0.459-0.213,0.61c-0.14,0.148-0.327,0.221-0.554,0.221
					c-0.198,0-0.352-0.051-0.459-0.16C296.311,482.377,296.162,482.183,295.981,481.905"/>
				<path style="fill:#B9E0EA;" d="M299.505,482.645c-0.245,0-0.455-0.079-0.634-0.238c-0.178-0.156-0.268-0.379-0.268-0.666
					c0-0.241,0.086-0.449,0.257-0.622c0.172-0.175,0.38-0.262,0.63-0.262c0.249,0,0.46,0.087,0.639,0.258
					c0.175,0.172,0.264,0.383,0.264,0.627c0,0.283-0.089,0.505-0.264,0.663C299.95,482.566,299.742,482.645,299.505,482.645"/>
				<path style="fill:#B9E0EA;" d="M307.572,480.638c0,0.2-0.06,0.418-0.182,0.647c-0.12,0.231-0.305,0.449-0.554,0.656
					c-0.247,0.208-0.558,0.377-0.935,0.503c-0.376,0.126-0.801,0.192-1.27,0.192c-1.005,0-1.788-0.294-2.35-0.876
					c-0.56-0.585-0.842-1.369-0.842-2.351c0-0.668,0.128-1.255,0.387-1.766c0.255-0.509,0.628-0.905,1.114-1.184
					c0.487-0.28,1.073-0.419,1.747-0.419c0.421,0,0.806,0.061,1.158,0.185c0.351,0.122,0.646,0.282,0.891,0.474
					c0.242,0.197,0.429,0.402,0.556,0.621c0.13,0.22,0.192,0.426,0.192,0.617c0,0.192-0.071,0.357-0.214,0.492
					c-0.147,0.134-0.322,0.203-0.525,0.203c-0.137,0-0.249-0.035-0.338-0.104c-0.09-0.07-0.191-0.181-0.299-0.339
					c-0.198-0.299-0.404-0.526-0.623-0.675c-0.214-0.152-0.488-0.227-0.822-0.227c-0.476,0-0.865,0.186-1.159,0.561
					c-0.293,0.372-0.44,0.888-0.44,1.535c0,0.305,0.039,0.587,0.114,0.843c0.073,0.255,0.182,0.473,0.326,0.653
					c0.144,0.18,0.315,0.316,0.517,0.409c0.203,0.096,0.426,0.141,0.665,0.141c0.326,0,0.605-0.075,0.836-0.225
					c0.235-0.151,0.439-0.38,0.617-0.689c0.099-0.182,0.205-0.324,0.318-0.428c0.114-0.102,0.256-0.156,0.423-0.156
					c0.198,0,0.363,0.077,0.492,0.227C307.505,480.307,307.572,480.469,307.572,480.638"/>
				<path style="fill:#B9E0EA;" d="M314.57,479.349c0,0.481-0.076,0.928-0.222,1.337c-0.155,0.408-0.37,0.759-0.657,1.05
					c-0.285,0.293-0.627,0.518-1.02,0.675c-0.4,0.155-0.844,0.235-1.338,0.235c-0.491,0-0.934-0.08-1.327-0.239
					c-0.39-0.156-0.732-0.384-1.017-0.677c-0.288-0.298-0.506-0.647-0.658-1.049c-0.143-0.402-0.219-0.847-0.219-1.333
					c0-0.492,0.078-0.942,0.224-1.35c0.151-0.409,0.368-0.758,0.65-1.046c0.282-0.289,0.621-0.511,1.02-0.669
					c0.402-0.156,0.844-0.234,1.327-0.234c0.491,0,0.937,0.078,1.338,0.239c0.399,0.157,0.74,0.384,1.028,0.675
					c0.286,0.297,0.502,0.644,0.65,1.046C314.495,478.417,314.57,478.86,314.57,479.349 M312.942,479.349
					c0-0.662-0.147-1.176-0.437-1.544c-0.289-0.372-0.681-0.555-1.172-0.555c-0.318,0-0.597,0.082-0.84,0.246
					c-0.242,0.164-0.426,0.406-0.556,0.728c-0.131,0.321-0.197,0.696-0.197,1.125c0,0.424,0.064,0.793,0.194,1.109
					c0.13,0.319,0.314,0.561,0.554,0.729c0.241,0.167,0.522,0.253,0.846,0.253c0.491,0,0.883-0.185,1.172-0.558
					C312.796,480.513,312.942,480,312.942,479.349"/>
				<path style="fill:#B9E0EA;" d="M320.757,479.468v2.155c0,0.342-0.075,0.595-0.231,0.768c-0.156,0.17-0.357,0.255-0.611,0.255
					c-0.246,0-0.446-0.085-0.595-0.255c-0.155-0.173-0.233-0.426-0.233-0.768v-2.583c0-0.409-0.013-0.727-0.04-0.953
					c-0.029-0.221-0.105-0.41-0.227-0.552c-0.123-0.147-0.318-0.22-0.582-0.22c-0.532,0-0.88,0.181-1.049,0.551
					c-0.167,0.36-0.254,0.884-0.254,1.568v2.19c0,0.337-0.076,0.592-0.226,0.765c-0.156,0.171-0.355,0.258-0.603,0.258
					c-0.247,0-0.448-0.087-0.605-0.258c-0.158-0.173-0.235-0.429-0.235-0.765v-4.64c0-0.306,0.07-0.538,0.21-0.695
					c0.144-0.161,0.329-0.239,0.556-0.239c0.223,0,0.407,0.077,0.558,0.222c0.148,0.149,0.222,0.354,0.222,0.616v0.153
					c0.283-0.335,0.585-0.583,0.903-0.738c0.323-0.163,0.677-0.241,1.071-0.241c0.407,0,0.757,0.082,1.049,0.244
					c0.294,0.163,0.534,0.41,0.725,0.736c0.275-0.33,0.569-0.577,0.882-0.738c0.313-0.161,0.658-0.241,1.04-0.241
					c0.442,0,0.826,0.089,1.147,0.262c0.319,0.174,0.558,0.425,0.718,0.747c0.138,0.296,0.206,0.757,0.206,1.386v3.166
					c0,0.342-0.076,0.595-0.23,0.768c-0.154,0.17-0.36,0.255-0.613,0.255c-0.247,0-0.447-0.087-0.603-0.258
					c-0.156-0.173-0.235-0.429-0.235-0.765v-2.728c0-0.349-0.015-0.627-0.043-0.837c-0.029-0.211-0.111-0.388-0.239-0.53
					c-0.133-0.142-0.332-0.215-0.596-0.215c-0.214,0-0.417,0.067-0.609,0.192c-0.192,0.124-0.342,0.298-0.451,0.508
					C320.818,478.289,320.757,478.774,320.757,479.468"/>
			</g>
			<g>
				<path style="fill:#B9E0EA;" d="M245.269,478.956c-0.001-0.003-0.001-0.006-0.001-0.011
					C245.268,478.95,245.268,478.953,245.269,478.956z"/>
				<path style="fill:#B9E0EA;" d="M245.351,479.475c0.001,0,0.001,0,0.001,0c-0.031-0.148-0.055-0.294-0.074-0.439
					C245.297,479.182,245.321,479.329,245.351,479.475z"/>
				<path style="fill:#B9E0EA;" d="M245.887,480.98c-0.004-0.006-0.007-0.013-0.011-0.021
					C245.881,480.966,245.884,480.974,245.887,480.98z"/>
				<path style="fill:#B9E0EA;" d="M245.836,480.88c-0.014-0.027-0.027-0.056-0.041-0.084
					C245.809,480.825,245.822,480.852,245.836,480.88z"/>
				<path style="fill:#B9E0EA;" d="M245.502,480.055c0.079,0.25,0.175,0.493,0.286,0.724c-0.113-0.236-0.206-0.479-0.284-0.724
					H245.502z"/>
				<path style="fill:#B9E0EA;" d="M251.546,472.742c0.313,0,0.545,0.025,0.81,0.07l0.075-0.477c0,0-0.732-0.225-1.695-0.147
					l-0.076-0.26c0.299-0.063,0.524-0.329,0.524-0.647c0-0.364-0.297-0.659-0.661-0.659c-0.365,0-0.66,0.295-0.66,0.659
					c0,0.318,0.224,0.584,0.523,0.647l0.084,0.289c-1.022,0.141-1.836,0.539-1.836,0.539l0.144,0.441
					c0.618-0.206,1.155-0.331,1.641-0.383C250.896,472.764,251.254,472.742,251.546,472.742z"/>
				<path style="fill:#B9E0EA;" d="M245.875,475.155l0.004-0.005c0.024-0.031,0.047-0.06,0.071-0.089l-0.196-0.141l-0.305-0.223
					c-0.017,0.024-0.497,0.465-0.876,1.281c-0.016-0.026-0.035-0.051-0.056-0.074c-0.114-0.124-0.272-0.188-0.474-0.184
					c-0.003,0-0.006,0-0.009,0c-0.125,0-0.211-0.042-0.267-0.092c0.056-0.071,0.089-0.16,0.089-0.258
					c0-0.23-0.187-0.418-0.419-0.418c-0.231,0-0.418,0.188-0.418,0.418c0,0.231,0.188,0.418,0.418,0.418
					c0.036,0,0.071-0.006,0.104-0.013c0.103,0.114,0.266,0.214,0.505,0.209c0.123-0.001,0.213,0.03,0.274,0.097
					c0.069,0.076,0.093,0.185,0.1,0.267c-0.001,0.001-0.001,0.003-0.002,0.003c-0.272,0.744-0.195,1.67-0.195,1.67l0.661,0.026
					c0.014-0.337,0.062-0.927,0.232-1.395C245.446,475.746,245.858,475.179,245.875,475.155z"/>
				<path style="fill:#B9E0EA;" d="M257.299,473.295c-0.23,0-0.418,0.187-0.418,0.418c0,0.036,0.005,0.07,0.015,0.103
					c-0.115,0.104-0.214,0.268-0.211,0.507c0.002,0.123-0.03,0.213-0.096,0.273c-0.053,0.047-0.12,0.072-0.185,0.088
					c-0.492-0.69-1.098-1.11-1.098-1.11l-0.475,0.509c0.359,0.326,0.725,0.735,1.081,1.245c0.246,0.352,0.5,0.807,0.71,1.26
					l0.641-0.304c0,0-0.292-0.723-0.704-1.37c0.072-0.025,0.143-0.064,0.207-0.12c0.125-0.113,0.187-0.273,0.183-0.474
					c-0.001-0.13,0.042-0.218,0.093-0.276c0.072,0.054,0.161,0.089,0.258,0.089c0.232,0,0.419-0.187,0.419-0.418
					C257.718,473.482,257.531,473.295,257.299,473.295z"/>
				<path style="fill:#B9E0EA;" d="M255.638,479.05c-0.881,0.429-2.332,0.997-4.241,1.263c-0.749,0.104-1.476,0.142-2.144,0.142
					c-0.87,0-1.638-0.065-2.228-0.139c-0.673-0.085-1.199-0.189-1.521-0.261c0.077,0.245,0.171,0.488,0.284,0.724
					c0.002,0.006,0.005,0.013,0.008,0.017c0.013,0.027,0.027,0.056,0.041,0.084c0.013,0.028,0.027,0.054,0.041,0.079
					c0.004,0.007,0.007,0.015,0.011,0.021c0.189,0.357,0.417,0.685,0.676,0.969c0.9,0.985,1.818,1.141,1.827,1.142l0.014,0.002
					l0.013,0.005c0.008,0.003,0.822,0.266,2.058,0.266c1.217,0,2.411-0.246,3.548-0.73c0.843-0.431,1.64-1.086,2.035-1.67
					c0.305-0.452,0.526-0.934,0.656-1.435c0.07-0.266,0.125-0.693,0.092-1.141C256.56,478.554,256.168,478.792,255.638,479.05z"/>
				<path style="fill:#B9E0EA;" d="M246.158,475.364c-0.026,0.037-0.408,0.578-0.71,1.409c-0.226,0.622-0.216,1.528-0.216,1.538
					v0.002c0,0.212,0.012,0.423,0.035,0.632c0,0.005,0,0.008,0.001,0.011c0.002,0.027,0.007,0.053,0.009,0.079
					c0.019,0.145,0.043,0.291,0.074,0.439c0.438,0.111,3.051,0.721,5.971,0.314c1.83-0.255,3.22-0.796,4.064-1.205
					c0.701-0.34,1.152-0.648,1.326-0.774c-0.173-0.643-0.652-1.652-1.09-2.281c-1.254-1.792-2.606-2.252-3.3-2.366
					c-0.265-0.043-0.477-0.068-0.777-0.068c-0.28,0-0.627,0.023-1.09,0.071c-0.465,0.048-0.983,0.171-1.584,0.373
					c-0.843,0.282-1.606,0.725-2.206,1.281l-0.02,0.019C246.557,474.92,246.372,475.092,246.158,475.364z M253.832,474.947
					c0.601,0,1.09,0.488,1.09,1.09c0,0.602-0.489,1.091-1.09,1.091c-0.602,0-1.09-0.489-1.09-1.091
					C252.742,475.435,253.23,474.947,253.832,474.947z M248.677,474.904c0.973,0,1.762,0.789,1.762,1.762s-0.788,1.76-1.762,1.76
					c-0.972,0-1.761-0.787-1.761-1.76S247.705,474.904,248.677,474.904z"/>
			</g>
		</g>
	</g>
</g>
</svg>
