<?xml version="1.0" encoding="utf-8"?>
<!-- Generator: Adobe Illustrator 27.5.0, SVG Export Plug-In . SVG Version: 6.00 Build 0)  -->
<svg version="1.1" xmlns="http://www.w3.org/2000/svg" xmlns:xlink="http://www.w3.org/1999/xlink" x="0px" y="0px"
	 viewBox="0 0 3710 3710" style="enable-background:new 0 0 3710 3710;" xml:space="preserve">
<g id="Background">
	<g>
		<g>
			<rect style="fill:#FFFFFF;" width="3710" height="3710"/>
		</g>
	</g>
</g>
<g id="Illustration">
	<g>
		<path style="fill:#F4F7FA;" d="M1184.28,635.101c-94.521,132.326,12.389,349.595-126.839,448.397
			c-135.527,96.177-299.075-65.528-426.716,17.146c-189.35,122.641-161.01,693.237,110.185,1050.427
			c81.557,107.419,150.205,149.603,179.533,270.427c62.977,259.441-169.543,410.932-126.949,539.367
			c95.906,289.19,1614.948,546.989,2234.587-312.57c289.396-401.45,338.204-985.03,88.106-1431.283
			C2664.263,410.638,1396.37,338.187,1184.28,635.101z"/>
		<g>
			<g>
				<g>
					<defs>
						<path id="SVGID_1_" d="M1665.792,2285.5c19.004-4.624,56.272-31.436,63.105-42.431
							c45.474-73.169,139.513-204.63,124.199-294.404c-2.615-15.332-73.169-22.033-84.401-35.13
							c-43.946-15.191-60.133-17.735-94.817-52.7c-102.396-103.227,79.102-338.381-167.664-386.702
							c-180.752-35.394-321.656,41.105-332.849-232.184c-11.193-273.29-280.898-743.726-546.363-522.878
							c-152.352,126.746,39.992,338.932-25.767,518.398c-62.488,170.539,20.754,296.047,203.212,374.075
							c182.457,78.028,98.965,162.752,66.04,321.892c-39.55,191.162,247.933,192.475,380.708,181.759
							C1358.116,2106.566,1636.194,2156.728,1665.792,2285.5z"/>
					</defs>
					
						<linearGradient id="SVGID_00000134216321845346404740000017554907899726525315_" gradientUnits="userSpaceOnUse" x1="1061.8896" y1="665.1338" x2="1575.8424" y2="3950.769">
						<stop  offset="0.0036" style="stop-color:#E38DDD"/>
						<stop  offset="1" style="stop-color:#9571F6"/>
					</linearGradient>
					
						<use xlink:href="#SVGID_1_"  style="overflow:visible;fill:url(#SVGID_00000134216321845346404740000017554907899726525315_);"/>
					<clipPath id="SVGID_00000013901476209487445580000007747517798318169216_">
						<use xlink:href="#SVGID_1_"  style="overflow:visible;"/>
					</clipPath>
					<g style="clip-path:url(#SVGID_00000013901476209487445580000007747517798318169216_);">
						<g>
							<path style="fill:#FCFDFE;" d="M1789.447,2103.919l1.399-3.916C1187.618,1884.345,777.708,1334.159,694.34,628.258
								l-4.133,0.486c39.512,334.547,157.209,645.853,340.368,900.263C1223.131,1796.473,1485.545,1995.273,1789.447,2103.919z"/>
							<path style="fill:#FCFDFE;" d="M844.934,2011.005c159.477-72.589,436.095-104.671,616.627-71.512l0.75-4.091
								c-181.241-33.287-458.967-1.069-619.099,71.816L844.934,2011.005z"/>
							<path style="fill:#FCFDFE;" d="M1671.516,2060.229l2.429-3.377c-77.42-55.759-123.677-148.516-137.486-275.693
								c-10.126-93.252-2.894-202.495,21.498-324.7l-4.08-0.813c-24.472,122.62-31.726,232.289-21.554,325.96
								C1546.264,1910.008,1593.095,2003.75,1671.516,2060.229z"/>
							<path style="fill:#FCFDFE;" d="M1005.981,1491.886l2.601-3.246c-140.527-112.608-329.421-126.002-463.138-117.411
								l0.268,4.153C678.695,1366.836,866.496,1380.112,1005.981,1491.886z"/>
							<path style="fill:#FCFDFE;" d="M812.956,1127.643l4.091-0.755c-36.815-199.501,59.311-389.517,119.885-485.027l-3.513-2.229
								C872.518,735.658,775.884,926.745,812.956,1127.643z"/>
						</g>
					</g>
				</g>
			</g>
		</g>
		<g>
			
				<linearGradient id="SVGID_00000000936253167003518460000001265659717933387676_" gradientUnits="userSpaceOnUse" x1="7282.3911" y1="2635.5256" x2="7528.165" y2="3499.9705" gradientTransform="matrix(-0.9947 -0.103 -0.103 0.9947 9242.6992 -1183.3485)">
				<stop  offset="0" style="stop-color:#AA80F9"/>
				<stop  offset="0.9964" style="stop-color:#6165D7"/>
			</linearGradient>
			<path style="fill:url(#SVGID_00000000936253167003518460000001265659717933387676_);" d="M1851.293,2105.16
				c63.332-86.215,26.937-244.484-27.729-340.598c-63.823-112.214-126.936-94.668-169.782-185.801
				c-79.773-169.678,106.295-300.086,39.418-477.577c-54.672-145.1-199.77-113.007-253.002-276.446
				c-38.412-117.936,18.675-191.333-48.589-282.967c-5.75-7.833-68.975-91.426-156.783-86.567
				c-88.625,4.905-150.459,97.048-174.355,162.614c-44.174,121.197,34.686,169.664,35.044,332.552
				c0.486,221.767-145.399,263.201-111.289,426.42c28.166,134.781,134.141,137.615,162.402,287.676
				c26.243,139.347-55.6,187.54-28.962,279.595C1178.948,2155.834,1722.115,2281.013,1851.293,2105.16z"/>
			<g>
				<defs>
					<path id="SVGID_00000121239442625975811370000013568107427588363181_" d="M1851.293,2105.16
						c63.332-86.215,26.937-244.484-27.729-340.598c-63.823-112.214-126.936-94.668-169.782-185.801
						c-79.773-169.678,106.295-300.086,39.418-477.577c-54.672-145.1-199.77-113.007-253.002-276.446
						c-38.412-117.936,18.675-191.333-48.589-282.967c-5.75-7.833-68.975-91.426-156.783-86.567
						c-88.625,4.905-150.459,97.048-174.355,162.614c-44.174,121.197,34.686,169.664,35.044,332.552
						c0.486,221.767-145.399,263.201-111.289,426.42c28.166,134.781,134.141,137.615,162.402,287.676
						c26.243,139.347-55.6,187.54-28.962,279.595C1178.948,2155.834,1722.115,2281.013,1851.293,2105.16z"/>
				</defs>
				
					<linearGradient id="SVGID_00000060724491253078479830000001774600673095521937_" gradientUnits="userSpaceOnUse" x1="12338.0605" y1="715.1437" x2="10749.1533" y2="3981.9412" gradientTransform="matrix(-0.9965 0.0832 0.0832 0.9965 13206.2842 -969.7854)">
					<stop  offset="0" style="stop-color:#AA80F9"/>
					<stop  offset="0.9964" style="stop-color:#6165D7"/>
				</linearGradient>
				
					<use xlink:href="#SVGID_00000121239442625975811370000013568107427588363181_"  style="overflow:visible;fill:url(#SVGID_00000060724491253078479830000001774600673095521937_);"/>
				<clipPath id="SVGID_00000163030947795408019360000016522436216693155495_">
					<use xlink:href="#SVGID_00000121239442625975811370000013568107427588363181_"  style="overflow:visible;"/>
				</clipPath>
				<g style="clip-path:url(#SVGID_00000163030947795408019360000016522436216693155495_);">
					<path style="opacity:0.7;fill:#FFFFFF;" d="M1763.609,2242.273c-0.129,0-0.261-0.013-0.394-0.043
						c-92.907-19.676-177.62-57.921-251.786-113.677c-70.333-52.877-143.046-107.548-168.722-197.535
						c-19.509-68.368-0.146-114.925,24.369-173.865c23.49-56.478,52.725-126.768,52.217-238.734
						c-0.29-63.917-0.65-143.463-47.546-223.284c-27.243-46.368-56.177-68.063-81.705-87.207
						c-26.478-19.855-49.347-37.003-59.145-76.108c-15.767-62.911,3.953-113.148,26.786-171.316
						c13.908-35.428,28.29-72.064,36.874-116.311c24.139-124.425-21.321-265.81-135.115-420.223c-0.62-0.844-0.442-2.029,0.4-2.651
						c0.849-0.615,2.033-0.44,2.651,0.4c114.45,155.303,160.135,297.687,135.786,423.195c-8.65,44.588-23.096,81.386-37.066,116.976
						c-22.595,57.56-42.109,107.274-26.639,169.01c9.473,37.801,30.774,53.774,57.742,73.997
						c25.815,19.355,55.071,41.295,82.701,88.319c47.412,80.701,47.775,160.813,48.066,225.183
						c0.513,112.734-28.884,183.418-52.507,240.21c-24.23,58.258-43.368,104.272-24.223,171.369
						c25.327,88.762,97.523,143.043,167.342,195.533c73.734,55.432,157.944,93.451,250.305,113.012
						c1.024,0.215,1.679,1.221,1.463,2.247C1765.273,2241.661,1764.486,2242.273,1763.609,2242.273z"/>
					<path style="opacity:0.7;fill:#FFFFFF;" d="M1392.982,1335.432c-0.319,0-0.642-0.083-0.938-0.251
						c-0.91-0.52-1.224-1.678-0.707-2.584c92.632-162.1,118.085-292.31,123.125-372.998c5.458-87.399-11.19-137.122-11.359-137.616
						c-0.341-0.99,0.187-2.068,1.176-2.409c0.986-0.344,2.068,0.185,2.408,1.178c0.172,0.496,17.036,50.75,11.574,138.817
						c-5.032,81.141-30.565,212.046-123.631,374.907C1394.279,1335.088,1393.64,1335.432,1392.982,1335.432z"/>
					<path style="opacity:0.7;fill:#FFFFFF;" d="M1414.649,1611.315c-0.223,0-0.452-0.04-0.672-0.126
						c-211.865-80.38-306.098-217.536-347.843-318.436c-45.238-109.352-40.273-200.96-40.217-201.873
						c0.063-1.046,0.99-1.76,2.005-1.777c1.046,0.066,1.842,0.963,1.777,2.009c-0.055,0.903-4.954,91.784,40.005,200.358
						c41.474,100.152,135.101,236.305,345.616,316.179c0.979,0.371,1.471,1.463,1.1,2.442
						C1416.133,1610.848,1415.413,1611.315,1414.649,1611.315z"/>
					<path style="opacity:0.7;fill:#FFFFFF;" d="M1434.785,2072.36c-0.599,0-1.19-0.285-1.557-0.814
						c-0.599-0.86-0.385-2.042,0.473-2.637c175.615-122.162,242.482-259.903,267.653-353.944
						c27.248-101.797,12.868-175.569,12.719-176.3c-0.207-1.026,0.457-2.028,1.483-2.234c1.027-0.212,2.027,0.457,2.234,1.479
						c0.149,0.745,14.701,75.39-12.773,178.034c-25.333,94.652-92.594,233.261-269.151,356.075
						C1435.536,2072.248,1435.159,2072.36,1434.785,2072.36z"/>
					<path style="opacity:0.7;fill:#FFFFFF;" d="M1296.311,824.491c-0.309,0-0.622-0.076-0.913-0.235
						c-151.097-83.223-206.523-204.193-226.414-291.019c-21.546-94.057-7.156-169.483-7.009-170.234
						c0.203-1.026,1.185-1.688,2.225-1.492c1.027,0.202,1.696,1.198,1.494,2.227c-0.147,0.741-14.387,75.506,7.021,168.805
						c19.736,86.022,74.71,205.884,224.513,288.392c0.917,0.506,1.251,1.658,0.745,2.574
						C1297.628,824.137,1296.979,824.491,1296.311,824.491z"/>
				</g>
			</g>
		</g>
		<g>
			<g>
				<g>
					
						<linearGradient id="SVGID_00000053541958454943369680000004369319744204722562_" gradientUnits="userSpaceOnUse" x1="-3545.1064" y1="2780.3496" x2="-3510.7095" y2="2809.2744" gradientTransform="matrix(-1 0 0 1 -548.6931 0)">
						<stop  offset="0" style="stop-color:#AA80F9"/>
						<stop  offset="0.9964" style="stop-color:#6165D7"/>
					</linearGradient>
					<path style="fill:url(#SVGID_00000053541958454943369680000004369319744204722562_);" d="M2867.079,2836.826
						c0,45.17,27.836,81.786,62.174,81.786c34.336,0,62.172-36.615,62.172-81.786c0-45.168-27.836-81.786-62.172-81.786
						C2894.915,2755.04,2867.079,2791.657,2867.079,2836.826z"/>
					
						<linearGradient id="SVGID_00000110462700870205289480000011502387365904104342_" gradientUnits="userSpaceOnUse" x1="-3522.7998" y1="2846.0586" x2="-3398.4543" y2="2846.0586" gradientTransform="matrix(-1 0 0 1 -548.6931 0)">
						<stop  offset="0" style="stop-color:#AA80F9"/>
						<stop  offset="0.9964" style="stop-color:#6165D7"/>
					</linearGradient>
					<path style="fill:url(#SVGID_00000110462700870205289480000011502387365904104342_);" d="M2849.761,2846.059
						c0,45.17,27.834,81.786,62.172,81.786s62.173-36.615,62.173-81.786c0-45.168-27.835-81.786-62.173-81.786
						S2849.761,2800.89,2849.761,2846.059z"/>
					
						<linearGradient id="SVGID_00000013882537534657956290000002165429938040279188_" gradientUnits="userSpaceOnUse" x1="-3486.6851" y1="2847.7063" x2="-3434.5808" y2="2847.7063" gradientTransform="matrix(-1 0 0 1 -548.6931 0)">
						<stop  offset="0" style="stop-color:#40447E"/>
						<stop  offset="0.9964" style="stop-color:#3C3B6B"/>
					</linearGradient>
					<path style="fill:url(#SVGID_00000013882537534657956290000002165429938040279188_);" d="M2885.888,2847.705
						c0,18.928,11.664,34.271,26.052,34.271c14.387,0,26.052-15.344,26.052-34.271c0-18.926-11.666-34.269-26.052-34.269
						C2897.552,2813.436,2885.888,2828.78,2885.888,2847.705z"/>
				</g>
				<path style="fill:#DADFE5;" d="M2929.253,2746.231v89.805c0,13.187-10.689,23.876-23.876,23.876l0,0
					c-7.62,0-14.786-3.639-19.28-9.794l-80.771-110.6L2929.253,2746.231z"/>
			</g>
			<g>
				<g>
					
						<linearGradient id="SVGID_00000080198701702391787980000015674785787136912271_" gradientUnits="userSpaceOnUse" x1="-2879.4709" y1="2708.6326" x2="-2845.074" y2="2737.5574" gradientTransform="matrix(-1 0 0 1 -548.6931 0)">
						<stop  offset="0" style="stop-color:#AA80F9"/>
						<stop  offset="0.9964" style="stop-color:#6165D7"/>
					</linearGradient>
					<path style="fill:url(#SVGID_00000080198701702391787980000015674785787136912271_);" d="M2201.444,2765.108
						c0,45.17,27.836,81.787,62.174,81.787c34.336,0,62.172-36.617,62.172-81.787c0-45.167-27.836-81.786-62.172-81.786
						C2229.28,2683.322,2201.444,2719.941,2201.444,2765.108z"/>
					
						<linearGradient id="SVGID_00000040561149703547703330000011717838728215856290_" gradientUnits="userSpaceOnUse" x1="-2857.1628" y1="2774.343" x2="-2732.8174" y2="2774.343" gradientTransform="matrix(-1 0 0 1 -548.6931 0)">
						<stop  offset="0" style="stop-color:#AA80F9"/>
						<stop  offset="0.9964" style="stop-color:#6165D7"/>
					</linearGradient>
					<path style="fill:url(#SVGID_00000040561149703547703330000011717838728215856290_);" d="M2184.124,2774.342
						c0,45.168,27.836,81.787,62.172,81.787c34.338,0,62.173-36.619,62.173-81.787c0-45.168-27.835-81.786-62.173-81.786
						C2211.96,2692.557,2184.124,2729.174,2184.124,2774.342z"/>
					
						<linearGradient id="SVGID_00000026844423280375476330000004540755141685671855_" gradientUnits="userSpaceOnUse" x1="-2821.0481" y1="2775.99" x2="-2768.9456" y2="2775.99" gradientTransform="matrix(-1 0 0 1 -548.6931 0)">
						<stop  offset="0" style="stop-color:#40447E"/>
						<stop  offset="0.9964" style="stop-color:#3C3B6B"/>
					</linearGradient>
					<path style="fill:url(#SVGID_00000026844423280375476330000004540755141685671855_);" d="M2220.252,2775.989
						c0,18.927,11.662,34.271,26.052,34.271c14.386,0,26.05-15.344,26.05-34.271c0-18.927-11.664-34.269-26.05-34.269
						C2231.914,2741.72,2220.252,2757.062,2220.252,2775.989z"/>
				</g>
				<path style="fill:#DADFE5;" d="M2263.618,2674.513v89.809c0,13.185-10.689,23.874-23.875,23.874l0,0
					c-7.622,0-14.786-3.639-19.281-9.794l-80.768-110.6L2263.618,2674.513z"/>
			</g>
			<path style="fill:#DADFE5;" d="M2938.538,2760.187c8.184,0,15.237-6.154,16.177-14.481c1.011-8.948-5.429-17.012-14.377-18.023
				l-788.275-88.828c-42.901-7.38-78.678-39.988-90.221-82.937l-330.203-1229.373c-17.586-65.463-74.833-112.567-142.445-117.224
				l-239.775-14.298c-9.012-0.621-16.71,6.313-17.243,15.301c-0.542,8.988,6.313,16.71,15.301,17.243l239.624,14.29
				c53.585,3.694,99.073,41.126,113.045,93.143l330.203,1229.373c14.831,55.201,60.814,97.099,117.137,106.756l789.206,88.955
				C2937.312,2760.156,2937.925,2760.187,2938.538,2760.187z"/>
			<path style="fill:#DADFE5;" d="M2390.118,2276.243c7.093,0,13.621-4.673,15.667-11.83l185.625-649.532
				c2.476-8.662-2.54-17.682-11.193-20.157c-8.646-2.468-17.681,2.547-20.157,11.193l-185.625,649.531
				c-2.476,8.662,2.539,17.681,11.193,20.157C2387.125,2276.036,2388.637,2276.243,2390.118,2276.243z"/>
			<path style="fill:#DADFE5;" d="M2200.219,2249.08c7.754,0,14.632-5.549,16.033-13.446l114.494-643.409
				c1.576-8.868-4.331-17.331-13.191-18.907c-8.948-1.616-17.339,4.331-18.907,13.191l-114.494,643.41
				c-1.576,8.868,4.331,17.331,13.191,18.907C2198.316,2249,2199.271,2249.08,2200.219,2249.08z"/>
			<path style="fill:#DADFE5;" d="M2082.23,2227.992c0.223,0,0.454-0.008,0.685-0.016c8.996-0.374,15.985-7.969,15.612-16.965
				l-26.423-636.603c-0.366-8.996-7.571-16.137-16.965-15.611c-8.996,0.374-15.986,7.969-15.611,16.965l26.422,636.603
				C2066.308,2221.129,2073.536,2227.992,2082.23,2227.992z"/>
			<path style="fill:#DADFE5;" d="M2649.135,2300.006c6.814,0,13.167-4.307,15.46-11.129l217.946-649.818
				c2.858-8.534-1.736-17.777-10.278-20.643c-8.534-2.842-17.777,1.735-20.642,10.277l-217.946,649.818
				c-2.858,8.534,1.736,17.777,10.278,20.643C2645.671,2299.727,2647.415,2300.006,2649.135,2300.006z"/>
			
				<linearGradient id="SVGID_00000032629888893483020060000001852188313115387265_" gradientUnits="userSpaceOnUse" x1="-1906.2968" y1="1229.5151" x2="-1304.6248" y2="1229.5151" gradientTransform="matrix(-1 0 0 1 -548.6931 0)">
				<stop  offset="0" style="stop-color:#40447E"/>
				<stop  offset="0.9964" style="stop-color:#3C3B6B"/>
			</linearGradient>
			<path style="fill:url(#SVGID_00000032629888893483020060000001852188313115387265_);" d="M788.5,1284.177
				c0.899,0,1.799-0.032,2.715-0.112l536.455-44.104c17.944-1.473,31.302-17.219,29.822-35.171
				c-1.473-17.952-17.236-31.326-35.171-29.822l-536.455,44.104c-17.944,1.472-31.302,17.219-29.822,35.171
				C757.445,1271.28,771.703,1284.177,788.5,1284.177z"/>
			<g>
				<g>
					
						<linearGradient id="SVGID_00000085963440258997946070000011217238831818439557_" gradientUnits="userSpaceOnUse" x1="-2961.1099" y1="3003.4055" x2="-2926.7129" y2="3032.3303" gradientTransform="matrix(-1 0 0 1 -548.6931 0)">
						<stop  offset="0" style="stop-color:#AA80F9"/>
						<stop  offset="0.9964" style="stop-color:#6165D7"/>
					</linearGradient>
					<path style="fill:url(#SVGID_00000085963440258997946070000011217238831818439557_);" d="M2283.083,3059.882
						c0,45.168,27.836,81.786,62.172,81.786c34.339,0,62.173-36.617,62.173-81.786s-27.834-81.786-62.173-81.786
						C2310.919,2978.096,2283.083,3014.713,2283.083,3059.882z"/>
					
						<linearGradient id="SVGID_00000030468384484102457400000011101216489278366115_" gradientUnits="userSpaceOnUse" x1="-2938.8035" y1="3069.1155" x2="-2814.458" y2="3069.1155" gradientTransform="matrix(-1 0 0 1 -548.6931 0)">
						<stop  offset="0" style="stop-color:#AA80F9"/>
						<stop  offset="0.9964" style="stop-color:#6165D7"/>
					</linearGradient>
					<path style="fill:url(#SVGID_00000030468384484102457400000011101216489278366115_);" d="M2265.765,3069.115
						c0,45.168,27.834,81.787,62.172,81.787c34.336,0,62.173-36.619,62.173-81.787s-27.837-81.786-62.173-81.786
						C2293.599,2987.329,2265.765,3023.946,2265.765,3069.115z"/>
					
						<linearGradient id="SVGID_00000067922707137630696310000013959656182146816939_" gradientUnits="userSpaceOnUse" x1="-2902.6887" y1="3070.7622" x2="-2850.5842" y2="3070.7622" gradientTransform="matrix(-1 0 0 1 -548.6931 0)">
						<stop  offset="0" style="stop-color:#40447E"/>
						<stop  offset="0.9964" style="stop-color:#3C3B6B"/>
					</linearGradient>
					<path style="fill:url(#SVGID_00000067922707137630696310000013959656182146816939_);" d="M2301.891,3070.761
						c0,18.927,11.662,34.271,26.052,34.271c14.387,0,26.052-15.344,26.052-34.271c0-18.926-11.666-34.27-26.052-34.27
						C2313.553,3036.492,2301.891,3051.836,2301.891,3070.761z"/>
				</g>
				<path style="fill:#C1CAD4;" d="M2345.255,2969.287v89.805c0,13.187-10.689,23.876-23.874,23.876l0,0
					c-7.622,0-14.786-3.639-19.281-9.796l-80.77-110.598L2345.255,2969.287z"/>
			</g>
			<g>
				<g>
					
						<linearGradient id="SVGID_00000000911888444755593160000001234152696161548957_" gradientUnits="userSpaceOnUse" x1="-2384.8118" y1="2945.7122" x2="-2350.4146" y2="2974.637" gradientTransform="matrix(-1 0 0 1 -548.6931 0)">
						<stop  offset="0" style="stop-color:#AA80F9"/>
						<stop  offset="0.9964" style="stop-color:#6165D7"/>
					</linearGradient>
					<path style="fill:url(#SVGID_00000000911888444755593160000001234152696161548957_);" d="M1706.785,3002.189
						c0,45.168,27.836,81.785,62.172,81.785c34.338,0,62.173-36.617,62.173-81.785c0-45.17-27.836-81.786-62.173-81.786
						C1734.621,2920.403,1706.785,2957.019,1706.785,3002.189z"/>
					
						<linearGradient id="SVGID_00000071540832373552632390000013445046553073659798_" gradientUnits="userSpaceOnUse" x1="-2362.5039" y1="3011.4216" x2="-2238.1582" y2="3011.4216" gradientTransform="matrix(-1 0 0 1 -548.6931 0)">
						<stop  offset="0" style="stop-color:#AA80F9"/>
						<stop  offset="0.9964" style="stop-color:#6165D7"/>
					</linearGradient>
					<path style="fill:url(#SVGID_00000071540832373552632390000013445046553073659798_);" d="M1689.465,3011.421
						c0,45.17,27.836,81.786,62.172,81.786c34.336,0,62.173-36.615,62.173-81.786c0-45.168-27.837-81.785-62.173-81.785
						C1717.301,2929.636,1689.465,2966.253,1689.465,3011.421z"/>
					
						<linearGradient id="SVGID_00000137841986797685075230000009278903258952220343_" gradientUnits="userSpaceOnUse" x1="-2326.3892" y1="3013.0676" x2="-2274.2866" y2="3013.0676" gradientTransform="matrix(-1 0 0 1 -548.6931 0)">
						<stop  offset="0" style="stop-color:#40447E"/>
						<stop  offset="0.9964" style="stop-color:#3C3B6B"/>
					</linearGradient>
					<path style="fill:url(#SVGID_00000137841986797685075230000009278903258952220343_);" d="M1725.594,3013.068
						c0,18.926,11.662,34.269,26.05,34.269c14.388,0,26.052-15.344,26.052-34.269c0-18.927-11.664-34.271-26.052-34.271
						C1737.255,2978.798,1725.594,2994.141,1725.594,3013.068z"/>
				</g>
				<path style="fill:#C1CAD4;" d="M1768.957,2911.594v89.805c0,13.187-10.689,23.877-23.874,23.877l0,0
					c-7.624,0-14.786-3.641-19.283-9.795l-80.768-110.6L1768.957,2911.594z"/>
			</g>
			<path style="fill:#DADFE5;" d="M3183.782,1665.075c8.47,0,15.627-6.552,16.248-15.134c0.645-8.98-6.114-16.79-15.094-17.434
				L1781.02,1531.451c-1.313-0.064-2.619-0.032-3.909,0.191l-581.203,98.994c-8.876,1.513-14.847,9.935-13.334,18.812
				c1.513,8.868,9.824,14.847,18.812,13.334l579.26-98.667l1401.95,100.921C3182.994,1665.059,3183.392,1665.075,3183.782,1665.075z
				"/>
			<g>
				
					<linearGradient id="SVGID_00000049196427399915910330000016080408179562363068_" gradientUnits="userSpaceOnUse" x1="2986.8674" y1="598.7245" x2="2538.3975" y2="1014.9045">
					<stop  offset="0" style="stop-color:#FF9085"/>
					<stop  offset="1" style="stop-color:#FB6FBB"/>
				</linearGradient>
				<path style="fill:url(#SVGID_00000049196427399915910330000016080408179562363068_);" d="M1570.585,575.092v1654.24
					l1163.109-75.316c26.415-1.546,46.903-20.01,46.903-42.269V635.342c0-22.936-21.711-41.709-48.985-42.354L1570.585,575.092z"/>
				<path style="opacity:0.67;fill:#F4F7FA;" d="M1511.505,624.01v1556.403l1168.414-71.389
					c24.852-1.455,44.129-18.826,44.129-39.769V680.169c0-21.58-20.427-39.242-46.088-39.849L1511.505,624.01z"/>
				
					<linearGradient id="SVGID_00000093154413814134606970000004837475405440744379_" gradientUnits="userSpaceOnUse" x1="3035.3145" y1="621.0096" x2="2584.321" y2="1039.5315">
					<stop  offset="0" style="stop-color:#FF9085"/>
					<stop  offset="1" style="stop-color:#FB6FBB"/>
				</linearGradient>
				<path style="fill:url(#SVGID_00000093154413814134606970000004837475405440744379_);" d="M2862.372,996.721H2734.03v-313.07
					h128.342c2.623,0,4.75,2.127,4.75,4.75v303.57C2867.122,994.595,2864.995,996.721,2862.372,996.721z"/>
				
					<linearGradient id="SVGID_00000138569969351574708850000007719818068163922847_" gradientUnits="userSpaceOnUse" x1="2453.7998" y1="1040.0421" x2="969.7637" y2="2505.53">
					<stop  offset="0" style="stop-color:#FF9085"/>
					<stop  offset="1" style="stop-color:#FB6FBB"/>
				</linearGradient>
				<path style="fill:url(#SVGID_00000138569969351574708850000007719818068163922847_);" d="M1498.196,622.009v1565.733
					c0,23.934,20.755,44.294,48.89,47.962l939.488,122.47c29.472,3.2,55.582-16.095,55.582-41.076V588.169
					c0-23.294-22.843-42.006-50.544-41.403l-937.635,26.736C1522.868,574.389,1498.196,595.844,1498.196,622.009z"/>
				<g>
					<g>
						<path style="fill:#FFFFFF;" d="M1773.804,1207.612l363.109,12.988v671.773l86.698,8.676v26.62l-444.083-45.561v-25.498
							l79.391,7.944v-628.198l-85.115-3.259V1207.612z M1994.546,1115.68c-52.53-1.37-89.594-15.243-111.566-41.549
							c-21.877-26.192-32.785-58.258-32.785-96.305c0-38.025,11.862-69.336,35.708-94.019
							c23.939-24.776,60.553-37.222,110.14-37.223c50.044-0.002,88.401,11.444,114.834,34.378
							c26.539,23.075,39.874,55.943,39.874,98.534c0,42.591-12.831,76.367-38.346,101.215
							C2086.986,1105.457,2047.597,1117.064,1994.546,1115.68z"/>
					</g>
				</g>
				
					<linearGradient id="SVGID_00000073686839137072133330000004754987491425290368_" gradientUnits="userSpaceOnUse" x1="2346.5474" y1="1010.876" x2="917.7865" y2="2421.7798">
					<stop  offset="0" style="stop-color:#FF9085"/>
					<stop  offset="1" style="stop-color:#FB6FBB"/>
				</linearGradient>
				<path style="opacity:0.3;fill:url(#SVGID_00000073686839137072133330000004754987491425290368_);" d="M1934.791,1875.539
					c-13.543-182.844,121.124-226.486,98.427-439.828c-32.867-308.942-335.974-412.05-310.822-666.274
					c7.853-79.365,45.156-147.651,89.845-203.301l-258.266,7.365c-31.108,0.888-55.78,22.342-55.78,48.508v1565.733
					c0,23.934,20.755,44.295,48.89,47.963l723.81,94.355C2018.355,2154.625,1943.935,1998.982,1934.791,1875.539z"/>
			</g>
			<path style="fill:#C1CAD4;" d="M2706.74,1809.908c1.6,0,3.201-0.239,4.737-0.701l477.026-144.833
				c8.614-2.619,13.478-11.726,10.867-20.34c-2.627-8.613-11.774-13.454-20.34-10.867L2705.1,1777.061l-1504.868-146.577
				c-9.107-0.979-16.941,5.684-17.809,14.64c-0.876,8.964,5.684,16.941,14.64,17.809l1508.093,146.895
				C2705.689,1809.884,2706.215,1809.908,2706.74,1809.908z"/>
			<path style="fill:#DADFE5;" d="M1380.236,2322.337c0.828,0,1.656-0.064,2.5-0.191l571.913-87.745l870.105,83.749
				c8.956,0.844,16.933-5.716,17.792-14.672c0.86-8.964-5.708-16.925-14.672-17.793l-872.127-83.94
				c-1.329-0.127-2.707-0.096-4.036,0.119l-573.927,88.056c-8.901,1.361-15.006,9.688-13.637,18.588
				C1365.38,2316.565,1372.33,2322.337,1380.236,2322.337z"/>
			<path style="fill:#C1CAD4;" d="M2417.241,2420.932c6.249,0,12.013-3.59,14.728-9.322l289.507-611.025
				c3.853-8.136,0.382-17.856-7.754-21.717c-8.128-3.837-17.864-0.39-21.717,7.754l-284.611,600.692L1381.804,2289.8
				c-9.091-0.86-16.925,5.732-17.777,14.688c-0.852,8.964,5.724,16.925,14.688,17.777l1036.974,98.596
				C2416.206,2420.909,2416.724,2420.932,2417.241,2420.932z"/>
			<path style="fill:#C1CAD4;" d="M2417.217,2420.932c1.322,0,2.651-0.159,3.988-0.493l409.08-102.712
				c4.402-1.107,8.152-3.997,10.333-7.985l357.453-653.146c4.323-7.897,1.417-17.809-6.48-22.131
				c-7.905-4.307-17.809-1.409-22.132,6.48l-354.03,646.896l-402.17,100.976c-8.733,2.189-14.035,11.05-11.838,19.783
				C2403.278,2415.997,2409.925,2420.932,2417.217,2420.932z"/>
			<path style="fill:#C1CAD4;" d="M2601.441,2032.153c1.552,0,3.097-0.223,4.585-0.661l449.266-131.682
				c8.638-2.532,13.589-11.591,11.058-20.229c-2.524-8.638-11.631-13.597-20.229-11.057l-446.321,130.814l-1326.624-115.696
				c-9.123-0.9-16.877,5.859-17.657,14.823c-0.788,8.972,5.851,16.877,14.823,17.657l1329.68,115.967
				C2600.493,2032.129,2600.971,2032.153,2601.441,2032.153z"/>
			<path style="fill:#C1CAD4;" d="M2491.676,2263.808c1.48,0,2.961-0.199,4.394-0.605l430.407-120.576
				c8.677-2.428,13.732-11.424,11.304-20.094c-2.428-8.678-11.424-13.749-20.093-11.305l-427.549,119.772l-1151.985-100.777
				c-8.948-0.948-16.877,5.851-17.657,14.823c-0.788,8.964,5.851,16.877,14.823,17.657l1154.938,101.04
				C2490.729,2263.784,2491.206,2263.808,2491.676,2263.808z"/>
			<path style="fill:#C1CAD4;" d="M2205.489,2400.807c7.021,0,13.51-4.578,15.619-11.655l184.63-619.423
				c2.572-8.63-2.34-17.713-10.97-20.284c-8.598-2.579-17.705,2.332-20.284,10.97l-184.63,619.423
				c-2.571,8.63,2.341,17.713,10.97,20.284C2202.376,2400.584,2203.944,2400.807,2205.489,2400.807z"/>
			<path style="fill:#C1CAD4;" d="M2001.259,2381.383c7.77,0,14.648-5.564,16.041-13.47l110.736-627.559
				c1.561-8.869-4.354-17.323-13.223-18.891c-8.836-1.545-17.331,4.363-18.891,13.223l-110.737,627.559
				c-1.561,8.868,4.355,17.323,13.223,18.892C1999.364,2381.303,2000.32,2381.383,2001.259,2381.383z"/>
			<path style="fill:#C1CAD4;" d="M1770.918,2355.167c8.59,0,15.778-6.711,16.264-15.388l34.901-623.125
				c0.502-8.996-6.376-16.694-15.364-17.195c-9.052-0.35-16.694,6.377-17.196,15.365l-34.901,623.125
				c-0.501,8.996,6.377,16.694,15.365,17.196C1770.297,2355.159,1770.608,2355.167,1770.918,2355.167z"/>
			<path style="fill:#C1CAD4;" d="M1552.661,2330.735c0.287,0,0.581-0.008,0.868-0.024c8.996-0.47,15.898-8.144,15.428-17.132
				l-33.205-633.068c-0.47-8.988-8.057-15.89-17.132-15.428c-8.996,0.47-15.898,8.144-15.428,17.132l33.205,633.068
				C1536.851,2323.985,1544.047,2330.735,1552.661,2330.735z"/>
			<path style="fill:#C1CAD4;" d="M2540.946,2389.869c6.066,0,11.894-3.399,14.704-9.234l298.399-620.228
				c3.909-8.112,0.494-17.856-7.618-21.757c-8.104-3.893-17.864-0.486-21.765,7.619l-298.4,620.227
				c-3.909,8.112-0.493,17.856,7.619,21.765C2536.161,2389.352,2538.573,2389.869,2540.946,2389.869z"/>
			<path style="fill:#C1CAD4;" d="M2706.724,2348.241c5.987,0,11.75-3.304,14.6-9.02l316.757-634.509
				c4.028-8.056,0.756-17.848-7.3-21.869c-8.073-4.044-17.864-0.748-21.869,7.3l-316.757,634.509
				c-4.028,8.057-0.756,17.848,7.3,21.869C2701.796,2347.692,2704.28,2348.241,2706.724,2348.241z"/>
			<path style="fill:#C1CAD4;" d="M2348.379,2994.397c2.054,0,4.092-0.39,6.01-1.146l590.135-234.21
				c8.375-3.328,12.467-12.801,9.147-21.168c-3.32-8.375-12.809-12.467-21.168-9.147l-586.274,232.682l-711.881-86.965
				c-50.671-6.186-92.171-41.994-105.737-91.208l-390.236-1416.709c-17.809-64.659-74.713-111.358-141.601-116.206l-207.056-15.014
				c-8.884-0.518-16.79,6.098-17.442,15.086c-0.645,8.98,6.106,16.79,15.086,17.442l207.055,15.015
				c53.155,3.845,98.373,40.951,112.527,92.339l390.237,1416.709c17.084,62.008,69.371,107.114,133.218,114.916l716.005,87.467
				C2347.057,2994.358,2347.719,2994.397,2348.379,2994.397z"/>
		</g>
		<g>
			
				<linearGradient id="SVGID_00000128486219510085573530000013535959323672662421_" gradientUnits="userSpaceOnUse" x1="2695.4673" y1="1861.6101" x2="2622.6941" y2="2125.6243" gradientTransform="matrix(-1 0 0 1 4275.8311 0)">
				<stop  offset="0" style="stop-color:#FFC444"/>
				<stop  offset="0.9964" style="stop-color:#F36F56"/>
			</linearGradient>
			<path style="fill:url(#SVGID_00000128486219510085573530000013535959323672662421_);" d="M1570.623,1534.279
				c0,0,182.402,73.007,151.43,270.421c-30.972,197.414-302.236,135.471-302.236,135.471l-15.929-135.471
				c0,0,206.176,8.639,180.2-118.147c-28.279-138.023-52.394-139.5-52.394-139.5L1570.623,1534.279z"/>
			
				<linearGradient id="SVGID_00000076574033983466826890000008071860428196449442_" gradientUnits="userSpaceOnUse" x1="2900.8467" y1="2990.3613" x2="2918.9292" y2="3315.8516" gradientTransform="matrix(-1 0 0 1 4275.8311 0)">
				<stop  offset="0" style="stop-color:#444B8C"/>
				<stop  offset="0.9964" style="stop-color:#26264F"/>
			</linearGradient>
			<path style="fill:url(#SVGID_00000076574033983466826890000008071860428196449442_);" d="M1329.688,3106.1
				c0,0-2.261,17.993-0.744,24.021c1.52,6.029,53.832,10.384,71.59,8.288c17.757-2.094-10.578-20.233-21.891-23.636
				C1367.331,3111.368,1329.688,3106.1,1329.688,3106.1z"/>
			
				<linearGradient id="SVGID_00000178188021601966167490000008275116997524831369_" gradientUnits="userSpaceOnUse" x1="2934.9978" y1="3150.7678" x2="2925.3918" y2="2711.3062" gradientTransform="matrix(-1 0 0 1 4275.8311 0)">
				<stop  offset="0" style="stop-color:#FFC444"/>
				<stop  offset="0.9964" style="stop-color:#F36F56"/>
			</linearGradient>
			<path style="fill:url(#SVGID_00000178188021601966167490000008275116997524831369_);" d="M1356.022,3076.085l-5.514,36.099
				c0,0-14.06,6.319-20.82,0.074l-0.744-37.786L1356.022,3076.085z"/>
			
				<linearGradient id="SVGID_00000040542760433109105570000015172291162060097978_" gradientUnits="userSpaceOnUse" x1="3228.1331" y1="2972.1838" x2="3246.2148" y2="3297.6616" gradientTransform="matrix(-1 0 0 1 4275.8311 0)">
				<stop  offset="0" style="stop-color:#444B8C"/>
				<stop  offset="0.9964" style="stop-color:#26264F"/>
			</linearGradient>
			<path style="fill:url(#SVGID_00000040542760433109105570000015172291162060097978_);" d="M1061.115,3074.472
				c0,0,11.101,8.237,8.141,18.102c-2.959,9.865-28.86,49.391-47.319,60.61c-18.458,11.219-12.672-12.154-7.301-26.711
				c5.371-14.558,19.098-46.623,24.455-52C1044.449,3069.099,1061.115,3074.472,1061.115,3074.472z"/>
			
				<linearGradient id="SVGID_00000090266746936424667870000001032383254232310445_" gradientUnits="userSpaceOnUse" x1="3223.1479" y1="3144.4688" x2="3213.5422" y2="2705.0127" gradientTransform="matrix(-1 0 0 1 4275.8311 0)">
				<stop  offset="0" style="stop-color:#FFC444"/>
				<stop  offset="0.9964" style="stop-color:#F36F56"/>
			</linearGradient>
			<path style="fill:url(#SVGID_00000090266746936424667870000001032383254232310445_);" d="M1081.082,3034.814
				c-5.365,14.956-10.528,27.253-14.565,36.323c-8.931,20.066-13.812,27.595-19.34,34.123c-4.822,5.686-16.235,17.817-19.302,15.797
				c-3.116-2.047,5.235-16.797,21.328-59.996c2.339-6.268,9.721-26.246,9.721-26.246l0,0H1081.082z"/>
			
				<linearGradient id="SVGID_00000042702949128258669910000010227348077964050592_" gradientUnits="userSpaceOnUse" x1="2795.4731" y1="2865.1389" x2="2977.9822" y2="2620.1924" gradientTransform="matrix(-1 0 0 1 4275.8311 0)">
				<stop  offset="0" style="stop-color:#444B8C"/>
				<stop  offset="0.9964" style="stop-color:#26264F"/>
			</linearGradient>
			<path style="fill:url(#SVGID_00000042702949128258669910000010227348077964050592_);" d="M1465.577,2409.851
				c3.828,37.594,7.502,95.943,2.009,166.76c-7.158,92.265-25.606,150.648-48.742,249.025
				c-14.141,60.12-33.193,148.605-50.435,259.27c-4,2.289-15.769,8.311-30.923,6.063c-8.484-1.26-14.829-4.632-18.576-7.058
				c-45.237-138.23-31.876-223.89-10.045-277.26c9.304-22.749,20.587-40.696,26.618-75.665c7.98-46.266-1.887-72.129-15.957-179.297
				c-10.03-76.385-8.293-88.192-1.62-99.646C1344.578,2406.241,1426.164,2407.137,1465.577,2409.851z"/>
			
				<linearGradient id="SVGID_00000080896945960126203750000008134444169022303904_" gradientUnits="userSpaceOnUse" x1="2931.0498" y1="2895.5376" x2="3358.5051" y2="2496.8997" gradientTransform="matrix(-1 0 0 1 4275.8311 0)">
				<stop  offset="0" style="stop-color:#444B8C"/>
				<stop  offset="0.9964" style="stop-color:#26264F"/>
			</linearGradient>
			<path style="fill:url(#SVGID_00000080896945960126203750000008134444169022303904_);" d="M1309.87,2425.926
				c-27.712,143.114-54.911,218.28-75.494,260.794c-5.076,10.484-22.013,44.312-38.021,92.808
				c-14.174,42.926-20.08,74.504-23.106,88.403c-9.554,43.868-33.166,107.921-96.703,191.933
				c-0.792,0.467-11.626,6.594-21.983,1.132c-5.242-2.766-7.854-7.175-8.893-9.23c8.307-80.322,17.843-147.818,26.117-199.909
				c1.739-10.925,9.385-58.727,21.379-121.879c4.694-24.715,11.571-60.926,19.81-98.121c10.256-46.318,25.986-109.33,50.228-184.835
				C1212.093,2439.988,1260.982,2432.959,1309.87,2425.926z"/>
			
				<linearGradient id="SVGID_00000121966053836479282680000015430221979684850600_" gradientUnits="userSpaceOnUse" x1="2693.9727" y1="2447.585" x2="2562.5708" y2="2261.4326" gradientTransform="matrix(-0.914 -0.4057 -0.4057 0.914 4320.1553 868.3495)">
				<stop  offset="0" style="stop-color:#444B8C"/>
				<stop  offset="0.9964" style="stop-color:#26264F"/>
			</linearGradient>
			<path style="fill:url(#SVGID_00000121966053836479282680000015430221979684850600_);" d="M1287.305,1850.236
				c22.061-5.545,59.946-6.408,90.9-33.772c4.921-4.35,34.402-34.602,30.047-76.404c-0.419-4.019-5.386-45.847-36.783-60.139
				c-13.693-6.234-26.833-4.688-36.474-3.552c-26.27,3.093-37.242,15.482-58.372,24.354c-26.559,11.15-50.511,8.66-74.414,6.694
				c-48.053-3.953-66.986-28.707-109.448-45.693c-52.168-20.863-122.544-23.082-166.915-0.574
				c-78.755,39.943-33.085,136.201-121.464,184.722c-28.957,15.892-35.585,6.506-99.555,33.762
				c-64.057,27.291-96.084,40.933-104.886,71.169c-12.214,41.964,21.367,102.136,67.656,125.76
				c45.217,23.078,88.365,5.295,105.96,29.263c12.527,17.056-5.367,31.479,2.497,61.847c10.133,39.153,52.75,64.974,59.635,69.142
				c63.882,38.709,185.033,12.017,259.168-50.41C1228.542,2073.828,1167.364,1880.381,1287.305,1850.236z"/>
			
				<linearGradient id="SVGID_00000172421883620963123710000002569845163990626713_" gradientUnits="userSpaceOnUse" x1="2818.7539" y1="2882.4856" x2="3001.2627" y2="2637.5393" gradientTransform="matrix(-1 0 0 1 4275.8311 0)">
				<stop  offset="0" style="stop-color:#444B8C"/>
				<stop  offset="0.9964" style="stop-color:#26264F"/>
			</linearGradient>
			<path style="opacity:0.3;fill:url(#SVGID_00000172421883620963123710000002569845163990626713_);" d="M1308.865,2806.651
				c9.304-22.75,20.587-40.698,26.618-75.665c7.98-46.266-1.887-72.129-15.957-179.297c-10.03-76.385-8.293-88.192-1.62-99.646
				c14.495-24.889,45.213-35.933,76.562-40.444c-0.419,1.607-0.842,3.217-1.182,4.773c-16.448,75.116,46.325,120.949,18.01,203.52
				c-13.959,40.71-36.234,50.035-41.423,97.259c-4.862,44.236,12.771,53.451,9.004,93.656
				c-5.63,60.101-48.325,74.646-59.435,120.672c-7.219,29.907-1.139,73.638,51.586,136.937c-0.877,5.454-1.75,10.924-2.618,16.49
				c-4.002,2.289-15.769,8.311-30.923,6.063c-8.484-1.26-14.829-4.632-18.576-7.058
				C1273.674,2945.68,1287.035,2860.02,1308.865,2806.651z"/>
			
				<linearGradient id="SVGID_00000118373287818336110230000015013499318150345385_" gradientUnits="userSpaceOnUse" x1="2846.6406" y1="2053.3962" x2="3252.0896" y2="2585.5491" gradientTransform="matrix(-1 0 0 1 4275.8311 0)">
				<stop  offset="0" style="stop-color:#FFC444"/>
				<stop  offset="0.9964" style="stop-color:#F36F56"/>
			</linearGradient>
			<path style="fill:url(#SVGID_00000118373287818336110230000015013499318150345385_);" d="M1523.435,1849.032
				c-4.148-6.442-17.334-24.294-73.295-37.451c-28.047-6.593-79.901-17.89-146.63-3.75
				c-91.649,19.418-148.728,74.412-170.211,97.527c17.592,11.455,66.139,46.406,90.18,112.714
				c7.481,20.63,29.579,91.158-2.026,157.217c-18.21,38.066-50.425,66.643-74.891,88.352
				c-36.697,32.554-55.703,37.558-68.005,66.725c-13.398,31.76,0.103,47.247-16.536,68.991
				c-17.869,23.35-38.804,12.496-69.092,36.111c-31.025,24.186-19.985,44.093-48.219,70.823
				c-41.026,38.835-95.414,26.222-97.945,43.698c-2.179,15.032,36.474,35.427,69.315,43.699
				c65.035,16.38,121.761-11.114,138.629-19.589c46.703-23.463,38.635-38.649,74.242-56.536
				c59.622-29.95,100.369,3.378,236.167,6.81c73.54,1.861,110.724,2.279,131.096-22.602c18.605-22.727,8.825-47.655-2.34-155.088
				c0,0,0-0.004-0.001-0.013c-3.588-35.879-11.1-111-11.145-153.809c-0.027-25.3,8.746-66.636,26.294-149.31
				c1.036-4.876,10.532-49.541,18.206-109.208C1534.14,1880.612,1533.139,1864.113,1523.435,1849.032z"/>
			<g style="opacity:0.3;">
				
					<linearGradient id="SVGID_00000097476085440363478580000018305040057586310055_" gradientUnits="userSpaceOnUse" x1="3093.0894" y1="1802.0172" x2="3197.5637" y2="2440.9197" gradientTransform="matrix(-1 0 0 1 4275.8311 0)">
					<stop  offset="0" style="stop-color:#FFC444"/>
					<stop  offset="0.9964" style="stop-color:#F36F56"/>
				</linearGradient>
				<path style="fill:url(#SVGID_00000097476085440363478580000018305040057586310055_);" d="M944.712,2506.289
					c28.234-26.73,17.194-46.637,48.219-70.823c30.287-23.615,51.223-12.761,69.092-36.111c16.638-21.744,3.138-37.23,16.536-68.991
					c12.302-29.167,31.307-34.169,68.005-66.726c24.466-21.708,56.68-50.284,74.891-88.351
					c31.605-66.059,9.507-136.587,2.026-157.217c-24.042-66.308-72.588-101.259-90.18-112.714c1.693-1.826,3.691-3.903,5.828-6.093
					c115.904,15.928,183.482,82.9,191.838,102.732c19.32,45.839-11.264,62.681-12.054,194.888
					c-0.376,63.193,6.44,88.145-14.063,114.522c-23.45,30.165-50.473,20.83-84.382,60.272
					c-26.056,30.301-21.883,49.514-46.211,62.282c-26.16,13.726-42.822-2.272-72.328,4.02
					c-49.294,10.511-59.831,67.349-92.419,98.445c-24.643,23.515-70.204,39.954-160.06,22.308c-2.078-3.025-3.082-5.979-2.681-8.746
					C849.301,2532.512,903.685,2545.125,944.712,2506.289z"/>
			</g>
			<path style="fill:#FFFFFF;" d="M1341.129,1736.185c0,0-5.845,46.729-23.092,57.436c-17.249,10.7-45.13,24.686-48.202,28.483
				c-3.071,3.791,106.844,15.61,161.315-11.878l0,0c-17.951-3.744-22.832-5.121-22.832-5.121c-4.872-1.377-13.96-3.938-23.07-9.13
				c-6.2-3.531-16.196-10.43-25.364-23.457l0.2-25.874L1341.129,1736.185z"/>
			<path style="fill:#FFFFFF;" d="M1338.506,1752.735c0,0,11.245,15.435,28.88,9.002c15.791-5.759,6.366-46.542-6.159-51.194
				c-4.178-1.552-11.849-0.865-16.978,2.334c-3.608,2.25-13.238,14.215-7.717,27.623c-3.989-1.156-7.5-0.107-8.379,1.869
				c-1.117,2.506,2.262,5.918,3.026,6.692C1333.832,1751.741,1337.031,1752.49,1338.506,1752.735z"/>
			<path style="fill:#FFFFFF;" d="M1541.215,1537.904l-25.764-13.17c0,0,54.435-3.422,67.575-23.131
				c13.14-19.709,22.525-19.709,15.955-6.57c-4.46,8.919-24.055,28.257-36.183,39.759
				C1556.988,1540.304,1548.346,1541.549,1541.215,1537.904z"/>
			
				<linearGradient id="SVGID_00000147197724704953916240000014250139608685664170_" gradientUnits="userSpaceOnUse" x1="3016.7161" y1="2010.5649" x2="3271.6467" y2="2010.5649" gradientTransform="matrix(-1 0 0 1 4275.8311 0)">
				<stop  offset="0" style="stop-color:#FFC444"/>
				<stop  offset="0.9964" style="stop-color:#F36F56"/>
			</linearGradient>
			<path style="fill:url(#SVGID_00000147197724704953916240000014250139608685664170_);" d="M1257.53,2043.106
				c11.495,24.412-41.328,81.268-100.04,108.265c-11.962,5.503-97.865,45-136.152,7.02c-31.636-31.387-11.219-96.284-3.93-119.453
				c35.794-113.769,145.714-171.641,191.781-192.514c34.38,85.963,14.132,124.268,6.163,136.229
				c-8.326,12.494-31.56,38.739-56.236,61.86c-17.358,16.261-28.167,24.176-26.713,26.712c1.809,3.157,22.155-2.805,101.181-41.272
				C1242.746,2031.438,1253.601,2034.771,1257.53,2043.106z"/>
			<g>
				
					<linearGradient id="SVGID_00000041998964923451338790000015544574746771142813_" gradientUnits="userSpaceOnUse" x1="2875.01" y1="2384.6399" x2="2895.0881" y2="2208.3987" gradientTransform="matrix(-1 0 0 1 4275.8311 0)">
					<stop  offset="0" style="stop-color:#311944"/>
					<stop  offset="0.5554" style="stop-color:#6F2B60"/>
					<stop  offset="1" style="stop-color:#A03976"/>
				</linearGradient>
				<path style="fill:url(#SVGID_00000041998964923451338790000015544574746771142813_);" d="M1452.973,1900.428l-139.882,13.101
					c-2.933,0.275-5.397,2.32-6.208,5.151l-52.201,182.276c-1.382,4.824,2.506,9.534,7.504,9.093l141.031-12.444
					c2.966-0.261,5.459-2.333,6.26-5.201l51.051-182.933C1461.876,1904.642,1457.965,1899.961,1452.973,1900.428z"/>
				
					<linearGradient id="SVGID_00000003069924566495322030000018331769193312141456_" gradientUnits="userSpaceOnUse" x1="2836.9375" y1="2380.3015" x2="2857.0156" y2="2204.0601" gradientTransform="matrix(-1 0 0 1 4275.8311 0)">
					<stop  offset="0" style="stop-color:#311944"/>
					<stop  offset="0.5554" style="stop-color:#6F2B60"/>
					<stop  offset="1" style="stop-color:#A03976"/>
				</linearGradient>
				<path style="opacity:0.3;fill:url(#SVGID_00000003069924566495322030000018331769193312141456_);" d="M1359.868,2058.088
					c5.275-28.814-10.981-51.157,4.598-78.165c16.026-27.783,44.162-23.093,64.371-45.98c6.433-7.285,12.206-17.607,15.042-32.663
					l9.093-0.852c4.992-0.468,8.903,4.213,7.555,9.042l-51.051,182.934c-0.801,2.868-3.294,4.94-6.26,5.201l-71.617,6.319
					C1349.821,2087.572,1357.352,2071.832,1359.868,2058.088z"/>
			</g>
			<path style="fill:#FFFFFF;" d="M1237.57,2037.398c0,0,48.173-49.292,67.778-56.573c19.604-7.283,2.247,44.708-9.24,52.041
				c-11.485,7.333-15.967,10.133-24.93,11.253c-8.962,1.121-8.962,1.121-8.962,1.121l-11.764,6.272
				C1250.453,2051.512,1235.33,2049.721,1237.57,2037.398z"/>
		</g>
	</g>
</g>
</svg>
